<?xml version="1.0" standalone="no"?>
<!DOCTYPE svg PUBLIC "-//W3C//DTD SVG 20010904//EN"
 "http://www.w3.org/TR/2001/REC-SVG-20010904/DTD/svg10.dtd">
<svg version="1.0" xmlns="http://www.w3.org/2000/svg"
 width="472.000000pt" height="472.000000pt" viewBox="0 0 472.000000 472.000000"
 preserveAspectRatio="xMidYMid meet">

<g transform="translate(0.000000,472.000000) scale(0.100000,-0.100000)"
fill="#000000" stroke="none">
<path d="M1964 4119 c-3 -5 -22 -7 -42 -4 -81 10 -262 -46 -262 -81 0 -7 -5
-16 -12 -20 -7 -5 -8 -3 -3 6 5 9 4 11 -4 6 -6 -4 -9 -11 -6 -16 3 -4 -2 -24
-10 -44 -19 -45 -19 -146 0 -191 10 -26 12 -57 8 -122 -5 -73 -4 -85 8 -78 12
7 12 6 1 -7 -7 -8 -10 -22 -7 -30 4 -11 -5 -20 -32 -31 -39 -15 -59 -13 -33 3
14 9 7 14 -12 11 -5 0 -8 3 -8 9 0 5 4 10 10 10 5 0 6 8 3 17 -5 13 -2 15 11
10 10 -4 20 -7 23 -7 3 0 0 -7 -7 -15 -11 -13 -10 -14 5 -9 14 6 16 4 10 -7
-4 -8 -5 -11 0 -7 11 11 13 209 2 238 -6 14 -9 31 -8 38 1 6 -2 12 -7 12 -13
0 -2 98 14 139 19 46 17 52 -5 14 -21 -34 -72 -87 -166 -174 -64 -59 -158
-175 -158 -196 0 -7 -4 -10 -8 -7 -7 4 -54 -54 -54 -67 0 -3 -20 -28 -45 -56
-33 -39 -48 -49 -57 -41 -7 6 -13 20 -12 32 0 21 0 21 9 -1 12 -28 20 -30 13
-3 -3 12 0 20 6 20 7 0 9 5 6 10 -3 6 1 13 9 16 12 5 123 132 173 199 5 6 15
19 23 30 13 16 10 16 -18 -4 -18 -12 -30 -27 -27 -32 4 -5 0 -6 -8 -3 -9 3
-33 -12 -60 -36 -33 -31 -43 -47 -39 -63 4 -16 2 -19 -11 -14 -8 3 -20 0 -25
-6 -24 -29 -112 -212 -108 -224 3 -7 1 -15 -3 -18 -16 -9 -12 -221 5 -314 15
-85 15 -93 -5 -212 -12 -68 -21 -137 -20 -154 0 -16 -2 -57 -6 -90 -4 -43 -2
-76 10 -115 9 -30 20 -86 25 -124 5 -38 12 -76 15 -84 3 -9 -6 -25 -25 -41
l-30 -26 16 -97 c10 -53 22 -96 27 -95 15 3 37 -75 25 -90 -13 -17 -2 -77 23
-116 10 -18 19 -45 19 -61 0 -101 102 -363 186 -477 47 -64 157 -166 232 -214
34 -22 62 -43 62 -47 0 -4 -19 -12 -42 -19 -24 -6 -77 -26 -118 -44 -41 -18
-90 -39 -108 -46 -19 -7 -64 -32 -100 -55 -36 -24 -89 -50 -117 -59 -29 -8
-58 -21 -64 -29 -7 -8 -29 -20 -49 -27 -20 -6 -57 -24 -82 -39 -57 -36 -224
-101 -313 -124 -121 -30 -488 -186 -569 -243 l-38 -26 0 -128 0 -129 867 0
c810 0 866 1 843 17 -37 24 -90 76 -90 87 0 5 10 0 23 -12 12 -11 24 -21 27
-20 15 0 59 -26 54 -33 -3 -5 0 -9 5 -9 15 0 14 13 -1 29 -9 9 -9 12 -1 7 19
-10 66 12 59 29 -8 21 16 19 41 -4 13 -12 25 -16 34 -11 7 5 10 12 6 16 -4 4
-2 13 4 20 9 11 6 16 -12 23 -22 9 -20 10 16 12 39 1 39 2 10 9 -16 4 -25 8
-18 9 7 0 15 16 18 33 5 28 11 33 36 34 16 1 29 -3 29 -7 0 -5 -4 -9 -10 -9
-17 0 -11 -25 10 -48 23 -24 19 -28 -11 -12 -10 6 -19 18 -20 28 0 10 -3 12
-6 5 -2 -7 5 -26 16 -42 12 -16 21 -34 21 -40 0 -6 18 -11 40 -11 22 0 40 -4
40 -10 0 -5 5 -10 10 -10 16 0 11 19 -10 37 -24 21 -25 36 -5 53 13 10 15 9
15 -8 0 -25 44 -72 67 -72 9 0 13 -3 10 -7 -4 -3 2 -12 13 -20 11 -8 20 -21
20 -29 0 -9 8 -14 18 -13 9 1 28 -3 42 -8 14 -6 57 -11 96 -12 60 -2 73 1 78
16 6 13 9 14 15 4 7 -10 10 -9 14 3 4 11 1 16 -11 16 -9 0 -24 5 -32 10 -12 7
-12 12 -2 22 9 9 12 9 12 0 0 -7 5 -12 10 -12 6 0 10 8 10 18 0 10 13 23 31
31 19 8 27 16 20 21 -9 5 -8 10 4 20 8 7 15 9 15 6 0 -4 12 5 26 19 19 19 23
29 15 39 -6 7 -8 16 -4 19 3 4 1 7 -5 7 -7 0 -12 -5 -12 -12 0 -6 -3 -8 -7 -5
-3 4 -15 -1 -26 -10 -24 -22 -148 -26 -154 -5 -3 6 -11 12 -19 12 -8 0 -14 5
-14 11 0 6 -7 9 -15 5 -9 -3 -15 0 -15 9 0 8 -8 15 -18 15 -10 0 -25 11 -32
25 -7 14 -17 25 -22 25 -4 0 -8 12 -8 26 0 14 4 23 10 19 6 -3 10 1 10 9 0 9
7 16 16 16 8 0 12 5 9 10 -9 14 1 13 35 -5 26 -14 30 -13 39 3 6 9 11 12 11 5
0 -19 97 28 112 55 16 30 99 84 154 100 46 14 90 57 90 90 0 12 -4 22 -8 22
-4 0 -8 -5 -8 -10 0 -6 -11 -15 -24 -21 -15 -7 -22 -17 -19 -26 7 -19 -21 -39
-84 -59 -28 -9 -54 -23 -57 -30 -3 -8 -13 -14 -22 -14 -10 0 -25 -7 -34 -15
-14 -13 -23 -13 -46 -5 -39 15 -64 39 -57 56 3 8 -1 14 -11 14 -9 0 -16 6 -16
14 0 7 -15 17 -32 21 -19 4 -27 9 -19 12 10 4 8 10 -10 24 l-24 18 25 -5 c24
-5 24 -5 6 10 -17 14 -17 16 -3 16 11 0 14 5 10 17 -5 13 -2 15 15 11 11 -3
22 -2 24 2 2 4 29 10 61 14 31 3 68 13 82 22 13 9 29 13 34 9 6 -3 8 0 5 8 -3
10 4 13 30 12 25 -2 33 2 29 12 -4 9 0 11 11 7 10 -4 16 -1 16 9 0 8 10 17 23
20 21 6 21 6 3 -8 -26 -19 -13 -19 24 0 17 9 30 22 30 29 0 16 53 40 72 33 7
-3 3 -6 -8 -6 -25 -1 -49 -26 -39 -41 4 -6 2 -17 -4 -24 -16 -19 8 -26 37 -10
17 8 20 13 10 17 -9 4 -10 8 -2 14 6 4 14 16 17 27 5 11 13 16 23 12 9 -3 12
-2 8 5 -3 6 3 17 15 25 22 16 30 41 9 28 -7 -5 -2 5 11 21 12 17 32 30 44 30
25 0 49 56 27 63 -7 3 1 11 19 18 18 7 36 25 42 41 6 15 15 36 20 45 12 24 11
41 -2 32 -8 -4 -9 1 -4 17 7 21 6 22 -9 10 -14 -12 -19 -11 -31 5 -8 10 -15
22 -15 25 0 9 -60 4 -60 -5 0 -3 0 -10 0 -16 0 -5 7 -6 17 -3 11 5 14 3 8 -6
-4 -8 -20 -11 -36 -9 -23 4 -26 2 -18 -9 11 -12 5 -17 -13 -14 -5 0 -8 -3 -8
-9 0 -5 -7 -10 -16 -10 -13 0 -11 -5 6 -27 19 -24 20 -28 6 -31 -12 -3 -14
-10 -10 -28 8 -30 -2 -31 -27 -2 -20 23 -20 23 -10 1 14 -28 14 -86 1 -78 -6
4 -8 15 -5 24 6 19 -18 23 -43 7 -21 -13 -14 -28 8 -16 23 12 26 5 6 -15 -12
-12 -16 -12 -26 0 -10 12 -10 18 0 30 7 9 14 28 16 43 2 24 1 25 -10 10 -9
-12 -16 -14 -23 -7 -17 17 -35 0 -30 -27 3 -20 2 -22 -9 -13 -11 9 -14 7 -14
-9 0 -12 -9 -22 -22 -26 -20 -5 -21 -8 -8 -17 12 -9 12 -10 -4 -5 -13 5 -17 2
-12 -9 3 -9 0 -15 -9 -15 -17 0 -20 16 -5 25 6 3 10 15 10 26 0 11 -4 18 -9
14 -5 -3 -12 -1 -16 5 -4 6 -10 8 -15 5 -4 -3 -6 4 -3 15 3 11 0 20 -6 20 -6
0 -10 -3 -10 -7 4 -26 -3 -76 -9 -67 -4 6 -16 14 -28 18 -11 3 -25 18 -32 34
-11 27 -11 26 -9 -11 3 -42 -2 -46 -28 -17 -10 11 -21 18 -23 15 -3 -3 5 -16
18 -30 23 -25 23 -25 4 -39 -17 -13 -20 -12 -28 7 -5 12 -8 29 -7 37 2 13 0
13 -8 1 -5 -8 -7 -21 -3 -29 3 -10 1 -13 -6 -8 -7 4 -12 18 -12 31 0 13 -4 27
-10 30 -5 3 -10 -3 -10 -15 0 -13 -5 -20 -12 -17 -7 2 -12 12 -12 21 1 9 -5
16 -13 16 -12 0 -12 2 1 16 16 15 21 34 10 34 -3 0 -12 -6 -20 -14 -8 -8 -26
-13 -42 -11 -15 2 -31 4 -35 4 -5 1 -5 11 -2 22 4 13 3 19 -3 15 -5 -3 -18 4
-28 16 -16 18 -17 20 -2 15 9 -3 19 0 22 9 3 8 1 14 -5 14 -6 0 -8 4 -5 9 4 5
0 12 -6 15 -10 5 -10 7 0 12 17 8 15 31 -4 38 -12 4 -15 2 -10 -9 8 -22 -2
-18 -15 6 -8 15 -8 19 0 15 6 -4 11 -1 11 8 0 20 -17 30 -23 14 -4 -10 -8 -9
-16 2 -15 21 -14 33 3 27 8 -3 17 0 20 8 5 14 46 9 46 -5 0 -5 9 -6 21 -3 12
4 25 0 29 -7 7 -11 12 -11 26 1 16 13 17 12 12 -8 -5 -19 -3 -21 12 -13 10 6
26 7 34 4 9 -3 16 -1 16 6 0 6 -4 8 -10 5 -6 -3 -10 -2 -10 4 0 14 18 23 22
11 1 -5 14 -11 28 -12 17 -1 26 -8 26 -19 0 -9 -6 -15 -13 -12 -7 3 -13 9 -13
14 0 6 -6 4 -14 -3 -17 -16 -13 -21 19 -24 20 -2 28 3 35 22 11 29 20 32 13 4
-3 -11 0 -20 6 -20 6 0 11 5 11 10 0 6 7 10 16 10 8 0 12 5 8 11 -4 8 0 9 15
4 12 -3 21 -2 21 4 0 8 -17 54 -26 69 -1 1 -13 -2 -27 -7 -29 -11 -42 -4 -26
16 9 9 8 13 0 13 -6 0 -14 -7 -17 -15 -4 -8 -10 -15 -15 -15 -4 0 -5 7 -2 17
4 10 2 14 -4 10 -6 -4 -19 -4 -29 0 -16 6 -16 7 0 19 11 8 13 14 7 19 -6 3
-11 1 -11 -4 0 -6 -8 -4 -17 4 -10 8 -26 20 -36 28 -24 17 -12 51 15 44 10 -3
52 3 94 13 41 9 77 14 80 9 3 -5 13 -3 24 3 10 7 17 15 14 19 -2 4 12 6 31 4
26 -3 35 0 35 11 0 11 4 12 19 5 10 -6 21 -8 23 -5 3 3 8 -2 12 -11 3 -9 2
-14 -3 -11 -11 7 -64 -41 -59 -55 4 -11 112 62 137 92 16 20 58 18 45 -2 -3
-5 2 -6 10 -3 9 3 14 9 11 14 -2 4 14 4 36 0 35 -7 42 -5 46 10 3 12 11 17 21
13 15 -4 15 -3 2 6 -9 6 -18 7 -24 1 -16 -16 -29 -12 -22 6 4 9 1 23 -6 31
-10 12 -9 15 7 13 11 -1 29 -2 40 -1 18 1 18 2 -3 17 -13 9 -30 13 -38 10 -9
-3 -12 -1 -9 4 3 6 -2 10 -12 10 -11 0 -25 6 -33 12 -12 11 -12 10 -1 -4 9
-12 10 -18 3 -18 -6 0 -16 9 -22 20 -6 11 -15 18 -19 15 -5 -2 -14 2 -21 10
-13 15 -35 10 -25 -6 4 -5 2 -9 -3 -9 -5 0 -12 9 -15 20 -8 30 -26 24 -24 -7
1 -16 8 -28 14 -28 6 0 15 -3 19 -8 4 -4 2 -7 -4 -7 -7 0 -12 -5 -12 -11 0 -6
7 -9 15 -5 8 3 15 1 15 -5 0 -6 4 -7 10 -4 6 4 7 -1 3 -11 -4 -11 -3 -15 4
-11 7 5 9 0 6 -12 -3 -14 -12 -18 -31 -16 -36 5 -140 16 -177 19 -16 1 -51 -4
-77 -11 -26 -7 -75 -13 -110 -11 -51 1 -74 -4 -120 -26 -60 -29 -80 -30 -84
-4 -1 11 3 15 14 11 12 -5 14 -2 9 11 -6 16 -3 18 23 14 20 -3 30 0 30 9 0 7
9 13 20 13 11 0 20 4 20 9 0 5 10 12 23 16 20 7 33 10 65 14 6 0 12 7 12 15 0
15 -43 16 -57 3 -11 -12 -20 -8 -30 16 -8 17 -7 28 3 42 12 16 18 17 56 6 48
-14 78 -37 78 -58 0 -10 -6 -12 -20 -8 -15 5 -20 2 -20 -10 0 -14 6 -16 28
-11 15 4 33 7 40 8 15 2 16 -2 -7 51 -17 39 -23 45 -43 40 -22 -6 -22 -5 -7
13 9 10 22 29 28 41 11 22 11 22 -17 6 -27 -16 -31 -15 -75 6 -35 17 -51 33
-67 66 -12 25 -19 53 -15 64 3 11 1 22 -5 26 -12 8 -4 108 11 137 6 10 5 34
-1 60 -22 85 -27 163 -15 222 6 28 4 41 -6 47 -12 8 -12 10 0 18 10 7 8 12
-10 26 -16 11 -20 19 -11 22 7 3 19 18 27 33 16 30 20 52 7 35 -12 -17 -73
-35 -71 -22 3 25 -1 37 -13 34 -7 -1 -14 8 -16 21 -2 12 -9 22 -16 22 -7 0
-18 11 -24 25 -8 17 -8 25 -1 25 6 0 7 5 4 10 -3 6 -1 10 5 10 6 0 8 5 5 10
-5 8 -11 8 -20 0 -10 -8 -14 -7 -18 7 -4 16 -6 15 -12 -5 -6 -17 -12 -21 -29
-16 -11 4 -24 12 -28 18 -4 6 -8 7 -8 2 0 -5 -7 -2 -16 5 -19 16 -133 22 -150
8 -6 -5 -30 -7 -53 -4 -23 3 -40 1 -37 -3 2 -4 -4 -8 -14 -8 -10 0 -17 3 -14
7 2 4 -3 12 -11 19 -12 10 -12 15 0 34 8 13 12 26 8 30 -4 4 0 4 9 1 9 -4 19
-2 22 3 3 6 -1 12 -9 16 -10 4 -15 20 -15 51 0 28 -4 44 -10 40 -5 -3 -10 0
-10 8 0 11 7 13 23 10 21 -5 21 -5 2 10 -10 8 -25 13 -32 10 -8 -3 -13 3 -13
16 0 12 5 21 11 21 5 0 7 5 4 10 -3 6 -1 10 4 10 6 0 11 -7 11 -15 0 -8 -5
-15 -12 -15 -6 0 -9 -2 -6 -5 10 -11 58 7 58 21 0 8 -6 11 -15 8 -23 -9 -19
22 5 39 14 10 18 20 14 32 -5 13 -3 16 7 13 8 -3 13 -9 12 -14 -1 -5 -4 -27
-7 -49 -5 -34 -5 -36 4 -16 17 40 18 64 4 100 -12 28 -12 32 0 28 8 -3 20 2
28 11 12 15 11 16 -4 3 -28 -21 -21 3 11 39 16 19 27 40 24 47 -3 7 6 17 23
23 16 5 42 16 57 25 15 8 25 10 21 4 -8 -13 35 -2 50 12 13 12 29 11 21 -1 -3
-5 6 -12 20 -15 14 -3 35 -7 48 -10 15 -3 29 3 40 15 17 21 74 29 62 9 -4 -6
11 -1 32 10 30 15 52 19 87 15 26 -3 46 -1 46 4 0 6 -10 8 -22 5 -19 -4 -17
-2 6 11 33 19 40 20 31 6 -3 -5 -1 -10 4 -10 6 0 11 8 11 19 0 10 11 26 25 35
32 21 35 20 35 -5 0 -16 -5 -20 -19 -16 -13 3 -21 -1 -24 -13 -3 -13 0 -16 14
-13 11 3 19 1 19 -5 0 -6 -16 -14 -36 -18 -24 -4 -32 -9 -23 -15 7 -4 29 1 50
12 21 10 45 16 53 13 9 -4 16 -1 16 6 0 9 7 7 20 -5 19 -17 20 -17 26 1 15 50
37 67 48 37 5 -11 1 -22 -10 -30 -11 -8 -13 -13 -5 -13 7 0 11 -6 9 -12 -13
-37 81 -52 127 -22 22 14 25 15 25 1 0 -8 -6 -18 -12 -20 -7 -3 -3 -6 9 -6 12
-1 25 3 28 9 3 5 17 -2 31 -18 23 -26 25 -26 38 -9 8 10 23 17 33 15 10 -2 23
3 29 11 14 18 30 8 38 -25 4 -14 17 -42 30 -62 12 -20 21 -43 19 -49 -3 -7 0
-13 6 -13 6 0 11 -9 11 -21 0 -12 -4 -17 -11 -13 -8 5 -8 1 0 -13 6 -11 7 -24
3 -28 -4 -3 -2 -6 3 -5 22 5 36 -1 30 -11 -4 -5 0 -18 8 -27 7 -9 17 -26 21
-37 6 -16 5 -18 -5 -7 -18 17 -30 15 -22 -3 3 -9 19 -23 35 -31 18 -9 28 -21
24 -29 -2 -7 2 -19 10 -26 10 -8 11 -14 4 -19 -7 -4 -4 -15 10 -32 11 -15 20
-34 20 -43 0 -9 10 -30 21 -47 17 -23 22 -48 25 -110 4 -84 27 -194 50 -240
21 -41 44 -147 33 -154 -14 -8 -11 -35 5 -48 8 -6 17 -22 21 -36 4 -17 3 -21
-3 -12 -12 17 -34 -63 -27 -98 3 -13 0 -29 -6 -37 -7 -7 -8 -13 -4 -13 4 0 3
-6 -3 -13 -6 -7 -13 -39 -14 -70 -2 -31 -5 -57 -8 -57 -3 0 -7 -26 -8 -57 -2
-56 -15 -77 -39 -68 -21 7 -22 -9 -2 -29 17 -17 19 -18 19 -3 0 9 5 17 10 17
14 0 3 -64 -27 -170 -20 -70 -26 -115 -30 -257 -3 -95 -1 -173 4 -173 17 1
109 70 166 126 96 96 170 236 203 388 18 79 30 374 15 341 -5 -11 -10 -32 -10
-46 -1 -14 -16 -51 -35 -82 -19 -32 -38 -66 -41 -77 -9 -29 -57 -50 -112 -50
-56 1 -87 19 -76 45 4 13 3 16 -5 11 -18 -11 -14 10 5 29 10 11 12 19 6 23 -6
4 -7 15 -2 27 5 14 8 15 9 5 1 -9 5 -5 11 9 6 16 6 28 -2 37 -6 8 -12 29 -12
47 0 46 14 137 21 137 7 0 21 31 36 74 5 13 10 15 19 8 19 -16 32 -2 35 38 9
111 15 150 22 150 4 0 11 10 14 22 7 28 45 72 69 81 9 3 17 14 17 23 0 41
-118 381 -143 413 -14 16 -31 46 -54 91 -10 19 -30 51 -46 70 -62 75 -233 244
-321 315 -27 22 -75 64 -105 93 -31 30 -62 57 -70 62 -12 6 -13 11 -3 23 10
12 7 18 -23 36 -40 24 -45 25 -45 12 0 -5 14 -14 30 -21 30 -13 41 -30 18 -30
-33 0 -88 22 -88 35 0 9 -6 12 -15 9 -8 -4 -15 -1 -15 6 0 6 -4 8 -10 5 -6 -3
-7 1 -4 9 8 20 9 20 38 0 16 -10 26 -12 31 -5 3 6 1 12 -4 12 -6 1 -15 2 -21
3 -5 0 -10 4 -10 9 0 4 0 10 0 13 0 4 8 0 17 -7 15 -12 16 -12 10 4 -3 9 -2
17 3 17 6 0 10 -9 10 -20 0 -11 4 -20 10 -20 13 0 7 57 -7 71 -7 7 -8 22 -3
39 6 22 5 27 -5 24 -7 -3 -16 0 -21 7 -4 8 -3 10 5 5 8 -6 11 3 9 29 -1 20 -6
39 -10 41 -4 3 -8 14 -8 25 0 10 -5 19 -10 19 -6 0 -9 3 -9 8 3 19 -2 32 -12
32 -8 0 -8 -4 -2 -12 6 -7 10 -31 11 -53 0 -22 3 -48 7 -59 8 -17 7 -17 -24
-2 -34 18 -51 50 -51 94 0 35 -25 73 -96 148 -50 52 -90 84 -114 90 -3 0 -12
4 -20 7 -8 4 -40 8 -70 10 -30 1 -57 5 -60 8 -8 10 -110 17 -116 8z m84 -16
c-10 -2 -26 -2 -35 0 -10 3 -2 5 17 5 19 0 27 -2 18 -5z m47 -123 c0 -7 -5
-15 -12 -17 -7 -3 -11 4 -10 16 1 23 22 23 22 1z m344 -214 c-3 -3 -56 -6
-118 -7 -63 0 -108 -5 -102 -9 9 -5 8 -9 -4 -13 -10 -5 -14 -3 -9 5 10 15
-181 4 -291 -17 -88 -17 -116 -18 -70 -4 40 12 216 38 285 41 119 7 314 9 309
4z m-89 -20 c0 -2 -9 -6 -20 -9 -11 -3 -18 -1 -14 4 5 9 34 13 34 5z m107 -2
c-3 -3 -12 -4 -19 -1 -8 3 -5 6 6 6 11 1 17 -2 13 -5z m-329 -21 c2 -7 -1 -13
-8 -13 -6 0 -8 5 -4 12 5 8 0 9 -14 6 -13 -4 -20 -2 -16 3 8 13 36 7 42 -8z
m-120 -11 c2 -7 -1 -12 -8 -12 -6 0 -9 4 -6 9 4 5 1 12 -4 14 -6 3 -5 4 2 3 6
-1 14 -8 16 -14z m468 -6 c17 5 17 4 2 -5 -18 -12 -48 -5 -48 11 0 7 5 6 14
-1 7 -6 22 -9 32 -5z m-1072 -12 c17 -17 21 -44 7 -44 -5 0 -14 14 -20 30 -11
34 -9 37 13 14z m399 9 c-7 -2 -19 -2 -25 0 -7 3 -2 5 12 5 14 0 19 -2 13 -5z
m92 -2 c3 -5 0 -13 -6 -17 -8 -5 -9 -3 -4 6 6 10 4 12 -9 7 -10 -4 -15 -3 -11
3 8 13 22 13 30 1z m265 -1 c0 -5 -8 -10 -17 -10 -15 0 -16 2 -3 10 19 12 20
12 20 0z m65 -8 c-3 -3 -11 0 -18 7 -9 10 -8 11 6 5 10 -3 15 -9 12 -12z m45
10 c0 -5 -7 -9 -15 -9 -8 0 -12 4 -9 9 3 4 9 8 15 8 5 0 9 -4 9 -8z m108 -4
c-16 -10 -58 -10 -58 0 0 4 16 7 35 8 22 0 31 -3 23 -8z m-828 -13 c0 -2 -9
-3 -19 -2 -11 0 -18 5 -15 9 4 6 34 0 34 -7z m211 0 c0 -5 -5 -11 -13 -13 -10
-3 -10 -1 1 6 11 8 10 11 -5 15 -16 5 -16 6 -1 4 10 -1 18 -6 18 -12z m279 5
c0 -5 -5 -10 -11 -10 -5 0 -7 5 -4 10 3 6 8 10 11 10 2 0 4 -4 4 -10z m-345
-10 c-27 -12 -43 -12 -25 0 8 5 22 9 30 9 10 0 8 -3 -5 -9z m421 -9 c-4 -5 -1
-12 4 -14 6 -3 5 -4 -2 -3 -15 3 -23 26 -8 26 6 0 9 -4 6 -9z m111 3 c-3 -3
-12 -4 -19 -1 -8 3 -5 6 6 6 11 1 17 -2 13 -5z m113 2 c0 -2 -7 -7 -16 -10 -8
-3 -12 -2 -9 4 6 10 25 14 25 6z m120 -6 c0 -5 -7 -7 -15 -4 -8 4 -15 8 -15
10 0 2 7 4 15 4 8 0 15 -4 15 -10z m-904 -37 c-3 -4 -6 -1 -6 5 0 7 -7 9 -17
5 -16 -6 -16 -5 -4 11 13 16 15 16 24 1 5 -9 6 -19 3 -22z m234 33 c0 -3 -4
-8 -10 -11 -5 -3 -10 -1 -10 4 0 6 5 11 10 11 6 0 10 -2 10 -4z m750 -10 c0
-13 -57 -43 -72 -38 -5 1 -8 -3 -8 -9 0 -5 -5 -7 -10 -4 -6 4 -8 11 -5 16 4 5
-1 9 -10 9 -9 0 -14 4 -10 10 3 6 15 5 30 -2 27 -12 75 2 75 22 0 5 2 10 5 10
3 0 5 -6 5 -14z m-1060 -11 c-7 -8 -14 -15 -15 -15 -2 0 -5 7 -9 15 -4 10 1
15 16 15 17 0 18 -2 8 -15z m530 5 c0 -5 -5 -10 -11 -10 -5 0 -7 5 -4 10 3 6
8 10 11 10 2 0 4 -4 4 -10z m195 0 c3 -5 1 -10 -4 -10 -6 0 -11 5 -11 10 0 6
2 10 4 10 3 0 8 -4 11 -10z m42 4 c-3 -3 -12 -4 -19 -1 -8 3 -5 6 6 6 11 1 17
-2 13 -5z m-137 -20 c0 -2 -7 -4 -15 -4 -8 0 -15 4 -15 10 0 5 7 7 15 4 8 -4
15 -8 15 -10z m50 6 c0 -5 -7 -10 -16 -10 -8 0 -12 5 -9 10 3 6 10 10 16 10 5
0 9 -4 9 -10z m190 -20 c0 -14 -28 -1 -34 16 -4 12 -2 12 14 4 11 -6 20 -15
20 -20z m-310 16 c0 -3 -4 -8 -10 -11 -5 -3 -10 -1 -10 4 0 6 5 11 10 11 6 0
10 -2 10 -4z m350 0 c0 -3 -4 -8 -10 -11 -5 -3 -10 -1 -10 4 0 6 5 11 10 11 6
0 10 -2 10 -4z m-1170 -21 c-7 -8 -17 -15 -23 -15 -6 0 -2 7 9 15 25 19 30 19
14 0z m570 -9 c0 -3 -4 -8 -10 -11 -5 -3 -10 -1 -10 4 0 6 5 11 10 11 6 0 10
-2 10 -4z m-97 -33 c-7 -2 -19 -2 -25 0 -7 3 -2 5 12 5 14 0 19 -2 13 -5z
m-188 -63 c3 -6 -1 -7 -9 -4 -18 7 -21 14 -7 14 6 0 13 -4 16 -10z m-11 -34
c-1 -9 2 -16 7 -16 5 0 9 5 9 10 0 6 5 10 10 10 18 0 10 -14 -18 -34 -15 -11
-24 -16 -20 -12 3 4 2 21 -2 37 -7 22 -6 29 3 26 7 -2 11 -12 11 -21z m981
-16 c-3 -5 -11 -10 -16 -10 -6 0 -7 5 -4 10 3 6 11 10 16 10 6 0 7 -4 4 -10z
m-1085 -8 c0 -5 -7 -9 -15 -9 -8 0 -15 4 -15 9 0 4 7 8 15 8 8 0 15 -4 15 -8z
m65 -32 c3 -5 2 -10 -4 -10 -5 0 -17 -3 -27 -7 -16 -6 -17 -5 -4 10 17 19 26
21 35 7z m708 -15 c-3 -9 -8 -14 -10 -11 -3 3 -2 9 2 15 9 16 15 13 8 -4z
m-796 -1 c-3 -3 -12 -4 -19 -1 -8 3 -5 6 6 6 11 1 17 -2 13 -5z m-257 -14 c0
-5 -4 -10 -10 -10 -5 0 -10 5 -10 10 0 6 5 10 10 10 6 0 10 -4 10 -10z m1117
-25 c-12 -25 -37 -42 -37 -25 0 8 39 50 46 50 1 0 -3 -11 -9 -25z m-823 -13
c-9 -16 -26 -35 -37 -42 -21 -13 -21 -13 -2 16 25 38 38 53 48 54 5 0 1 -13
-9 -28z m-44 -6 c0 -3 -4 -8 -10 -11 -5 -3 -10 -1 -10 4 0 6 5 11 10 11 6 0
10 -2 10 -4z m674 -18 c-3 -4 -12 -8 -20 -8 -8 0 -13 4 -10 8 3 5 12 9 20 9 8
0 13 -4 10 -9z m156 -18 c0 -5 -4 -10 -10 -10 -5 0 -10 5 -10 10 0 6 5 10 10
10 6 0 10 -4 10 -10z m-830 -26 c0 -3 -6 -12 -14 -20 -13 -12 -15 -12 -13 6 1
17 27 31 27 14z m625 -4 c-3 -5 -11 -10 -16 -10 -6 0 -7 5 -4 10 3 6 11 10 16
10 6 0 7 -4 4 -10z m575 -5 c-7 -9 -15 -13 -19 -10 -3 3 1 10 9 15 21 14 24
12 10 -5z m-750 -1 c0 -8 -19 -13 -24 -6 -3 5 1 9 9 9 8 0 15 -2 15 -3z m-45
-14 c3 -5 1 -10 -4 -10 -6 0 -11 5 -11 10 0 6 2 10 4 10 3 0 8 -4 11 -10z
m933 -18 c2 -7 -2 -10 -12 -6 -9 3 -16 11 -16 16 0 13 23 5 28 -10z m-973 -12
c-3 -5 -11 -10 -16 -10 -6 0 -7 5 -4 10 3 6 11 10 16 10 6 0 7 -4 4 -10z
m-425 -30 c-6 -11 -13 -20 -16 -20 -2 0 0 9 6 20 6 11 13 20 16 20 2 0 0 -9
-6 -20z m420 -4 c0 -3 -4 -8 -10 -11 -5 -3 -10 -1 -10 4 0 6 5 11 10 11 6 0
10 -2 10 -4z m-457 -66 c-9 -17 -28 -43 -41 -58 l-23 -27 19 35 c27 53 46 80
55 80 4 0 0 -14 -10 -30z m377 -50 c0 -5 -2 -10 -4 -10 -3 0 -8 5 -11 10 -3 6
-1 10 4 10 6 0 11 -4 11 -10z m-234 -71 c-9 -20 -15 -27 -16 -16 0 20 19 61
26 54 2 -2 -2 -19 -10 -38z m-339 -161 c-3 -8 -6 -5 -6 6 -1 11 2 17 5 13 3
-3 4 -12 1 -19z m537 4 c6 -10 -30 -9 -40 1 -4 4 2 7 14 7 11 0 23 -4 26 -8z
m-4 -32 c0 -5 -2 -10 -4 -10 -3 0 -8 5 -11 10 -3 6 -1 10 4 10 6 0 11 -4 11
-10z m160 -130 c0 -5 -5 -10 -11 -10 -5 0 -7 5 -4 10 3 6 8 10 11 10 2 0 4 -4
4 -10z m-85 -20 c-3 -5 -12 -10 -18 -10 -7 0 -6 4 3 10 19 12 23 12 15 0z
m-99 -75 c-11 -8 -25 -15 -30 -15 -6 1 0 7 14 15 32 19 40 18 16 0z m81 -11
c-3 -3 -12 -4 -19 -1 -8 3 -5 6 6 6 11 1 17 -2 13 -5z m211 -68 c48 -26 116
-103 118 -136 1 -16 0 -30 -3 -30 -7 0 -123 72 -123 76 0 2 6 1 13 -2 8 -3 14
2 14 12 0 17 -60 48 -80 41 -7 -2 8 -11 33 -20 25 -10 34 -15 21 -13 -14 3
-30 1 -35 -3 -19 -15 -74 -23 -81 -11 -3 5 -11 8 -16 5 -16 -11 -10 7 9 22 9
8 13 12 7 10 -5 -3 -16 1 -22 9 -10 10 -10 15 5 23 13 8 14 11 2 11 -10 1 -9
4 5 10 32 14 103 11 133 -4z m-328 -10 c0 -3 -4 -8 -10 -11 -5 -3 -10 -1 -10
4 0 6 5 11 10 11 6 0 10 -2 10 -4z m37 -12 c-3 -3 -12 -4 -19 -1 -8 3 -5 6 6
6 11 1 17 -2 13 -5z m88 -24 c-53 -24 -68 -25 -30 -1 17 11 39 20 50 20 13 0
6 -7 -20 -19z m-155 -24 c0 -2 -7 -6 -15 -10 -8 -3 -15 -1 -15 4 0 6 7 10 15
10 8 0 15 -2 15 -4z m30 -52 c0 -2 -9 -8 -20 -14 -15 -8 -18 -8 -14 3 4 11 34
21 34 11z m234 -35 c-3 -5 -10 -7 -15 -3 -5 3 -7 10 -3 15 3 5 10 7 15 3 5 -3
7 -10 3 -15z m131 1 c21 -8 24 -12 14 -28 -11 -17 -110 -62 -138 -62 -7 0 1
13 18 29 20 19 31 39 31 56 0 29 10 30 75 5z m-240 -30 c7 -22 49 -55 80 -63
11 -2 0 -5 -23 -6 -46 -1 -112 24 -112 42 0 13 30 47 41 47 4 0 10 -9 14 -20z
m285 0 c0 -5 -5 -10 -11 -10 -5 0 -7 5 -4 10 3 6 8 10 11 10 2 0 4 -4 4 -10z
m-10 -45 c5 3 11 1 15 -5 3 -5 -1 -10 -10 -10 -8 0 -18 -7 -21 -15 -4 -8 -10
-15 -15 -15 -4 0 -5 8 -2 18 6 15 4 15 -9 4 -9 -7 -23 -12 -32 -10 -8 2 -14
-1 -13 -7 1 -5 11 -9 22 -8 20 3 20 3 1 -12 -15 -11 -22 -12 -27 -3 -6 9 -16
8 -44 -5 -20 -9 -42 -17 -50 -17 -23 0 -18 18 8 26 12 4 25 12 29 18 10 15
132 55 136 44 2 -4 8 -6 12 -3z m-573 -60 c-19 -19 -27 -19 -27 -1 0 8 8 16
18 18 24 6 27 1 9 -17z m77 -45 c-6 -6 -10 -3 -10 10 0 13 4 16 10 10 7 -7 7
-13 0 -20z m-104 10 c-13 -9 -13 -12 2 -23 15 -12 15 -18 2 -67 -8 -30 -14
-64 -15 -75 0 -18 -1 -18 -10 4 -6 17 -6 28 3 39 10 12 10 14 1 8 -12 -7 -19
14 -13 39 1 6 4 23 6 38 5 35 12 47 27 47 7 0 6 -4 -3 -10z m455 -7 c-16 -10
-33 -16 -37 -15 -5 1 -8 -2 -8 -7 0 -5 -10 -11 -22 -13 -13 -2 9 -4 48 -3 40
0 70 3 68 6 -4 7 26 23 39 21 4 -1 7 3 7 9 0 5 5 7 10 4 6 -3 10 -1 10 4 0 6
5 11 10 11 6 0 10 -7 10 -15 0 -8 5 -15 11 -15 6 0 9 7 5 15 -3 8 -3 15 0 15
7 0 24 -48 28 -86 3 -26 1 -34 -11 -34 -13 0 -13 -3 -3 -15 7 -8 9 -22 6 -31
-3 -8 1 -22 9 -30 18 -18 19 -36 5 -84 -15 -52 -22 -143 -11 -136 5 3 11 1 13
-4 2 -6 10 -12 18 -14 14 -2 39 -14 68 -34 10 -7 10 -15 -2 -43 -9 -19 -16
-32 -16 -29 -1 3 -3 13 -5 23 -5 25 -15 34 -15 14 0 -9 -5 -17 -11 -17 -5 0
-8 -4 -5 -9 3 -5 -1 -11 -9 -15 -8 -3 -15 -2 -15 3 0 14 -36 7 -54 -12 -10 -9
-22 -15 -27 -12 -10 7 -53 -14 -46 -22 3 -2 15 0 26 7 15 8 21 8 21 0 0 -13
-17 -30 -48 -47 -18 -11 -20 -10 -16 2 5 11 2 13 -10 9 -17 -6 -23 11 -7 20
13 8 1 46 -14 46 -7 0 -24 -9 -39 -21 -14 -11 -26 -17 -26 -14 0 4 -12 0 -26
-10 -14 -9 -28 -14 -32 -11 -3 3 0 6 6 6 7 0 12 7 12 16 0 8 -5 12 -10 9 -17
-10 -50 5 -50 24 0 9 6 23 13 30 10 10 9 11 -5 6 -11 -4 -21 1 -29 17 -14 25
-19 88 -7 88 16 0 4 71 -14 81 -10 5 -18 15 -18 22 0 7 4 6 10 -3 5 -8 10 -11
10 -6 0 5 -6 17 -14 25 -8 9 -18 31 -23 50 -5 19 -14 36 -21 39 -14 4 -16 -24
-2 -33 16 -10 12 -28 -5 -21 -8 3 -19 -2 -24 -11 -7 -14 -10 -13 -21 8 -12 21
-12 23 2 11 20 -16 37 3 19 21 -6 6 -11 8 -11 3 0 -4 -7 0 -16 9 -13 13 -19
13 -33 3 -14 -10 -14 -9 1 7 13 14 20 16 31 7 8 -7 17 -9 20 -5 12 11 8 23 -8
23 -20 0 -19 37 0 57 12 12 13 18 4 29 -9 11 -6 14 19 14 16 0 35 7 42 15 8 9
24 13 46 10 19 -2 34 0 34 4 0 5 21 11 48 15 26 3 58 13 72 20 14 8 32 14 40
15 8 0 2 -7 -15 -16z m329 -190 c-10 -40 -14 -41 -14 -5 0 18 5 32 10 32 6 0
8 -11 4 -27z m-68 -117 c0 -13 -6 -22 -12 -19 -7 2 -10 13 -7 24 7 27 21 24
19 -5z m-888 -27 c-2 -3 3 -13 11 -22 9 -11 10 -21 4 -29 -5 -7 -8 -35 -7 -63
2 -44 1 -48 -11 -32 -15 21 -29 102 -20 117 3 5 1 10 -6 10 -8 0 -8 4 1 15 12
14 36 17 28 4z m405 -14 c-3 -9 -8 -14 -10 -11 -3 3 -2 9 2 15 9 16 15 13 8
-4z m502 -35 c3 -5 -1 -10 -9 -10 -8 0 -18 5 -21 10 -3 6 1 10 9 10 8 0 18 -4
21 -10z m-473 -55 c-6 -12 -11 -14 -16 -6 -4 6 -2 11 4 11 8 0 7 7 -1 23 -11
21 -10 21 6 6 13 -12 15 -22 7 -34z m3 -44 c3 -5 1 -12 -5 -16 -5 -3 -10 1
-10 9 0 18 6 21 15 7z m-405 -31 c0 -5 -2 -10 -4 -10 -3 0 -8 5 -11 10 -3 6
-1 10 4 10 6 0 11 -4 11 -10z m52 -15 c4 -20 3 -23 -8 -14 -16 13 -19 39 -5
39 5 0 11 -11 13 -25z m48 4 c-13 -23 -33 -21 -38 4 -3 12 4 17 23 17 23 0 25
-2 15 -21z m1448 -60 c20 -32 -9 -22 -36 13 -11 14 -11 16 5 12 11 -3 24 -14
31 -25z m-1508 -52 c0 -6 10 -21 22 -34 20 -22 16 -32 -7 -15 -11 7 -45 58
-45 66 0 3 7 3 15 0 8 -4 15 -11 15 -17z m237 1 c-3 -8 -6 -5 -6 6 -1 11 2 17
5 13 3 -3 4 -12 1 -19z m963 3 c0 -11 -59 -26 -67 -18 -3 3 -2 10 2 16 8 13
65 15 65 2z m-174 -33 c4 -6 3 -8 -4 -4 -6 3 -13 2 -17 -4 -9 -15 -25 -12 -25
5 0 18 36 20 46 3z m-959 -4 c-3 -3 -12 -4 -19 -1 -8 3 -5 6 6 6 11 1 17 -2
13 -5z m537 -20 c18 -7 12 -24 -10 -24 -8 0 -14 7 -14 15 0 17 2 18 24 9z m85
-66 c-3 -18 21 -78 31 -78 4 0 11 -16 14 -35 4 -20 11 -33 15 -30 5 3 8 -6 7
-18 -1 -17 -6 -23 -17 -20 -9 3 -16 10 -16 16 1 33 -4 48 -15 45 -7 -1 -23 3
-36 10 -20 12 -23 10 -32 -13 -12 -31 -26 -26 -33 12 -3 18 1 34 11 46 9 10
12 18 7 17 -25 -5 -24 2 4 26 17 14 35 23 41 19 5 -3 10 -1 10 4 0 6 2 11 5
11 3 0 5 -6 4 -12z m211 -64 c0 7 42 -16 73 -40 15 -12 27 -25 27 -28 0 -11
-28 -6 -33 7 -4 9 -8 9 -15 -2 -7 -9 -12 -10 -16 -2 -4 6 -16 11 -27 11 -11 0
-31 11 -44 24 -13 13 -27 21 -31 17 -4 -3 -4 0 0 7 4 7 12 10 17 7 5 -4 9 -1
9 5 0 8 6 8 20 0 11 -6 20 -9 20 -6z m142 -66 c-7 -7 -12 -8 -12 -2 0 6 3 14
7 17 3 4 9 5 12 2 2 -3 -1 -11 -7 -17z m-362 -18 c0 -5 -7 -10 -16 -10 -8 0
-12 5 -9 10 3 6 10 10 16 10 5 0 9 -4 9 -10z m-324 -112 c3 -59 2 -60 -6 -18
-10 54 -12 96 -4 87 3 -3 8 -34 10 -69z m1244 13 c0 -10 -6 -21 -13 -24 -10
-4 -13 2 -9 19 5 28 22 32 22 5z m-698 -204 c-3 -13 -7 -15 -12 -7 -5 8 -13 9
-21 4 -11 -6 -12 -5 -2 7 18 22 41 20 35 -4z m31 8 c-3 -9 -8 -14 -10 -11 -3
3 -2 9 2 15 9 16 15 13 8 -4z m288 -38 c-8 -8 -11 -7 -11 4 0 20 13 34 18 19
3 -7 -1 -17 -7 -23z m-291 -7 c0 -5 -2 -10 -4 -10 -3 0 -8 5 -11 10 -3 6 -1
10 4 10 6 0 11 -4 11 -10z m440 6 c0 -2 -7 -9 -15 -16 -13 -11 -14 -10 -9 4 5
14 24 23 24 12z m-450 -36 c0 -4 -7 -11 -16 -14 -8 -3 -12 -2 -9 4 3 6 2 10
-4 10 -6 0 -8 7 -5 15 5 12 10 13 20 4 8 -6 14 -15 14 -19z m220 20 c0 -5 -4
-10 -10 -10 -5 0 -10 5 -10 10 0 6 5 10 10 10 6 0 10 -4 10 -10z m60 -21 c0
-11 -27 -12 -34 -1 -2 4 4 9 15 9 10 1 19 -2 19 -8z m-215 -11 c5 4 5 1 1 -5
-10 -18 -33 -16 -33 2 0 10 4 12 12 5 7 -5 16 -6 20 -2z m-45 -8 c0 -5 -5 -10
-11 -10 -5 0 -7 5 -4 10 3 6 8 10 11 10 2 0 4 -4 4 -10z m480 -64 c0 -2 -7 -6
-15 -10 -8 -3 -15 -1 -15 4 0 6 7 10 15 10 8 0 15 -2 15 -4z m-1270 -324 c0
-21 -2 -24 -10 -12 -13 20 -13 53 0 45 6 -3 10 -18 10 -33z m532 -40 c3 7 7 8
10 3 3 -6 0 -15 -7 -22 -10 -9 -17 -7 -34 8 -12 11 -19 25 -15 30 3 6 14 1 24
-11 12 -14 19 -17 22 -8z m-12 -53 c55 -17 90 -45 90 -73 0 -12 -4 -16 -8 -11
-9 12 -74 16 -66 4 3 -5 11 -9 18 -9 8 0 19 -7 26 -15 10 -12 10 -15 0 -15 -7
0 -10 -8 -7 -20 6 -24 -15 -27 -33 -5 -10 12 -10 15 4 15 19 0 21 16 4 26 -6
4 -14 2 -16 -5 -4 -11 -6 -11 -12 0 -5 7 -4 24 1 37 7 18 6 28 -3 34 -19 11
-33 4 -30 -16 3 -18 1 -19 -22 -10 -11 4 -13 14 -9 35 5 25 3 29 -17 29 -19 0
-20 3 -10 15 8 9 17 11 28 6 10 -5 37 -15 62 -22z m50 27 c0 -3 -4 -8 -10 -11
-5 -3 -10 -1 -10 4 0 6 5 11 10 11 6 0 10 -2 10 -4z m30 -206 c0 -5 -2 -10 -4
-10 -3 0 -8 5 -11 10 -3 6 -1 10 4 10 6 0 11 -4 11 -10z m-110 -14 c0 -3 -4
-8 -10 -11 -5 -3 -10 -1 -10 4 0 6 5 11 10 11 6 0 10 -2 10 -4z m110 -96 c0
-5 -4 -10 -10 -10 -5 0 -10 5 -10 10 0 6 5 10 10 10 6 0 10 -4 10 -10z m335
-60 c0 -8 5 -18 10 -22 6 -4 2 -8 -8 -8 -11 0 -17 5 -14 13 2 6 -3 18 -12 25
-14 11 -14 12 4 10 11 -2 20 -10 20 -18z"/>
<path d="M1815 2500 c27 -12 43 -12 25 0 -8 5 -22 9 -30 9 -10 0 -8 -3 5 -9z"/>
<path d="M1900 2414 c0 -6 73 -44 78 -40 2 3 -7 11 -22 17 -14 7 -26 15 -26
19 0 4 -7 7 -15 7 -8 0 -15 -1 -15 -3z"/>
<path d="M1505 2050 c-3 -5 -1 -10 4 -10 6 0 11 5 11 10 0 6 -2 10 -4 10 -3 0
-8 -4 -11 -10z"/>
<path d="M1961 1984 c0 -11 3 -14 6 -6 3 7 2 16 -1 19 -3 4 -6 -2 -5 -13z"/>
<path d="M1600 1930 c0 -6 7 -10 15 -10 8 0 15 2 15 4 0 2 -7 6 -15 10 -8 3
-15 1 -15 -4z"/>
<path d="M1650 1800 c0 -5 5 -10 10 -10 6 0 10 5 10 10 0 6 -4 10 -10 10 -5 0
-10 -4 -10 -10z"/>
<path d="M1635 1770 c-3 -5 -1 -10 4 -10 6 0 11 5 11 10 0 6 -2 10 -4 10 -3 0
-8 -4 -11 -10z"/>
<path d="M1620 1726 c0 -2 7 -7 16 -10 8 -3 12 -2 9 4 -6 10 -25 14 -25 6z"/>
<path d="M1867 1333 c-7 -39 -1 -40 11 -4 6 17 7 31 3 31 -5 0 -11 -12 -14
-27z"/>
<path d="M2611 3626 c-8 -10 -9 -16 -1 -21 5 -3 10 -5 11 -3 4 18 7 38 4 38
-1 0 -8 -6 -14 -14z"/>
<path d="M2616 3581 c-4 -5 -2 -12 3 -15 5 -4 12 -2 15 3 4 5 2 12 -3 15 -5 4
-12 2 -15 -3z"/>
<path d="M2693 3555 c0 -8 4 -12 9 -9 5 3 6 10 3 15 -9 13 -12 11 -12 -6z"/>
<path d="M2709 3538 c-5 -18 -6 -38 -1 -34 7 8 12 36 6 36 -2 0 -4 -1 -5 -2z"/>
<path d="M2943 3335 c0 -8 4 -12 9 -9 5 3 6 10 3 15 -9 13 -12 11 -12 -6z"/>
<path d="M3117 3343 c-2 -5 -4 -62 -4 -128 0 -72 3 -110 8 -97 7 19 10 232 3
232 -2 0 -5 -3 -7 -7z"/>
<path d="M2345 3290 c-3 -5 -1 -10 4 -10 6 0 11 5 11 10 0 6 -2 10 -4 10 -3 0
-8 -4 -11 -10z"/>
<path d="M2375 3290 c-3 -6 1 -7 9 -4 18 7 21 14 7 14 -6 0 -13 -4 -16 -10z"/>
<path d="M2423 3280 c-13 -5 -23 -12 -23 -15 0 -9 16 -5 36 10 22 16 19 18
-13 5z"/>
<path d="M1721 3111 c-8 -5 -9 -11 -3 -15 5 -3 12 1 16 9 6 17 6 18 -13 6z"/>
<path d="M1690 2980 c0 -5 5 -10 11 -10 5 0 7 5 4 10 -3 6 -8 10 -11 10 -2 0
-4 -4 -4 -10z"/>
<path d="M1625 2930 c3 -5 10 -10 16 -10 5 0 9 5 9 10 0 6 -7 10 -16 10 -8 0
-12 -4 -9 -10z"/>
<path d="M1673 2922 c-6 -4 -11 -16 -10 -27 1 -14 -3 -19 -15 -17 -11 2 -18
-3 -18 -13 0 -8 7 -15 15 -15 8 0 15 -5 15 -11 0 -6 -7 -9 -15 -5 -9 3 -15 0
-15 -9 0 -18 10 -19 34 0 10 7 15 18 12 23 -10 16 5 42 23 41 10 0 11 -2 4 -6
-21 -8 -15 -23 10 -23 12 0 30 12 41 26 18 26 18 26 -2 20 -12 -4 -31 -1 -44
8 -13 8 -28 12 -35 8z"/>
<path d="M2704 2795 c-4 -11 -13 -13 -27 -9 -20 6 -20 6 -4 -11 10 -10 15 -20
12 -23 -3 -3 -11 0 -17 6 -7 7 -17 12 -22 12 -6 0 -4 -5 4 -10 9 -6 10 -10 3
-10 -6 0 -15 5 -18 10 -10 15 -25 12 -25 -6 0 -10 -6 -14 -17 -10 -52 15 -71
17 -78 6 -4 -6 -16 -8 -28 -4 -19 6 -20 5 -9 -8 10 -13 9 -15 -12 -11 -13 3
-27 0 -30 -6 -4 -6 -22 -11 -40 -11 -20 0 -40 -8 -51 -20 -19 -21 -8 -29 12
-9 6 6 17 8 24 3 9 -5 2 -11 -22 -19 -22 -8 -34 -19 -35 -31 -2 -37 -4 -44
-13 -44 -4 0 -6 11 -3 25 2 14 0 25 -6 25 -14 0 -23 -67 -12 -94 5 -15 5 -27
-1 -33 -16 -16 -12 -162 5 -188 33 -50 66 -70 66 -40 0 9 -7 15 -16 13 -10 -2
-19 3 -21 10 -3 7 1 10 11 6 9 -3 16 -1 16 5 0 10 -14 15 -33 12 -13 -2 -24
42 -21 89 3 69 3 70 12 68 17 -3 42 15 42 32 0 10 7 20 15 24 8 3 15 1 15 -3
0 -5 -6 -12 -12 -14 -7 -3 -1 -6 13 -6 15 -1 40 11 58 27 72 62 230 78 321 32
44 -23 81 -26 78 -7 -4 16 -57 46 -85 47 -12 0 -25 5 -28 11 -5 6 10 9 44 8
52 -3 72 -9 74 -25 1 -5 7 -8 13 -6 7 1 20 -8 29 -20 12 -16 16 -17 11 -5 -5
15 -3 16 14 7 11 -6 20 -15 20 -21 0 -6 5 -7 10 -4 6 4 8 11 5 16 -4 5 -2 9 4
9 6 0 8 -13 4 -32 -4 -25 -3 -30 6 -22 19 17 16 72 -4 94 -12 13 -14 20 -5 20
9 0 8 7 -4 25 -9 13 -16 30 -16 38 0 15 -66 47 -107 51 -14 2 -34 13 -44 25
-20 24 -67 28 -75 6z m33 -101 c-3 -3 -12 -4 -19 -1 -8 3 -5 6 6 6 11 1 17 -2
13 -5z m-387 -54 c0 -5 -5 -10 -11 -10 -5 0 -7 5 -4 10 3 6 8 10 11 10 2 0 4
-4 4 -10z m571 -7 c13 -16 12 -17 -3 -5 -11 9 -28 11 -47 7 -17 -3 -32 -2 -36
4 -11 20 71 13 86 -6z m-16 -21 c-3 -3 -11 0 -18 7 -9 10 -8 11 6 5 10 -3 15
-9 12 -12z"/>
<path d="M2900 2779 c0 -5 5 -7 10 -4 6 3 10 8 10 11 0 2 -4 4 -10 4 -5 0 -10
-5 -10 -11z"/>
<path d="M2098 2631 c-5 -18 -1 -31 16 -47 l23 -23 -3 22 c-1 12 -3 29 -3 37
-1 13 -3 13 -10 1 -7 -11 -10 -9 -13 10 l-3 24 -7 -24z"/>
<path d="M2244 2606 c1 -32 2 -33 18 -19 15 14 15 16 0 34 -9 10 -17 19 -17
19 -1 0 -1 -15 -1 -34z"/>
<path d="M2150 2601 c0 -5 7 -11 15 -15 8 -3 15 -1 15 3 0 5 -7 11 -15 15 -8
3 -15 1 -15 -3z"/>
<path d="M2518 2568 c-27 -11 -48 -26 -48 -33 0 -7 -7 -18 -15 -25 -21 -17
-79 -113 -63 -104 7 4 22 14 34 23 11 9 0 -4 -25 -28 -36 -35 -43 -46 -34 -60
6 -9 15 -16 22 -16 6 0 16 -7 21 -15 5 -8 12 -11 16 -7 4 3 1 13 -5 21 -7 8
-10 19 -7 24 6 10 106 13 121 4 6 -4 16 -7 24 -7 8 0 16 -6 19 -14 3 -10 -2
-11 -19 -5 -13 4 -31 7 -39 7 -8 0 -20 4 -27 9 -7 5 -14 5 -18 -2 -11 -18 85
-53 161 -58 39 -2 74 0 77 5 3 5 -11 10 -31 11 -70 4 -91 12 -84 30 8 23 22
35 55 50 15 6 37 28 48 47 24 39 38 43 63 17 15 -18 15 -20 -1 -34 -28 -24
-59 -38 -87 -38 -30 0 -43 -17 -26 -33 10 -9 11 -9 6 0 -5 9 2 11 23 8 17 -2
35 -6 41 -10 5 -3 10 -1 10 4 0 6 8 11 19 11 10 0 24 7 31 16 7 8 23 14 34 13
29 -3 106 32 86 39 -30 10 -70 44 -64 53 3 6 0 17 -8 26 -11 15 -11 16 6 10
33 -13 2 16 -46 43 l-43 23 20 -23 20 -23 -32 16 c-37 20 -87 26 -90 12 -2 -5
3 -10 10 -11 35 -2 86 -17 82 -24 -8 -13 -145 -12 -145 1 0 7 -9 9 -24 5 -29
-7 -40 3 -23 22 10 13 9 15 -11 10 -34 -9 -15 10 21 21 18 5 24 9 12 9 -11 0
-41 -9 -67 -20z m302 -73 c16 -20 8 -29 -19 -20 -12 4 -18 12 -14 21 7 18 17
18 33 -1z m-180 -35 c0 -5 -4 -10 -10 -10 -5 0 -10 5 -10 10 0 6 5 10 10 10 6
0 10 -4 10 -10z m-90 -20 c0 -12 12 -33 26 -47 20 -20 23 -28 13 -37 -8 -8
-10 -8 -6 0 7 12 -71 27 -130 26 -30 -1 -49 17 -20 19 6 0 32 13 57 29 55 35
60 35 60 10z"/>
<path d="M2850 2576 c0 -2 7 -7 16 -10 8 -3 12 -2 9 4 -6 10 -25 14 -25 6z"/>
<path d="M2885 2540 c-3 -5 -1 -10 4 -10 6 0 11 5 11 10 0 6 -2 10 -4 10 -3 0
-8 -4 -11 -10z"/>
<path d="M2383 2500 c-26 -11 -31 -27 -8 -27 8 0 13 3 10 5 -3 3 3 11 13 18
20 15 16 16 -15 4z"/>
<path d="M2340 2430 c8 -5 11 -10 6 -10 -11 0 14 -30 25 -30 11 0 -1 33 -15
42 -6 4 -15 8 -21 8 -5 0 -3 -5 5 -10z"/>
<path d="M3388 2379 c-22 -12 -23 -29 -4 -29 8 0 22 -10 30 -22 13 -18 16 -19
21 -5 10 25 1 62 -15 64 -8 2 -23 -2 -32 -8z"/>
<path d="M2316 2371 c-7 -10 22 -37 30 -28 4 3 -1 13 -9 22 -9 8 -18 11 -21 6z"/>
<path d="M2470 2296 c0 -2 8 -10 18 -17 15 -13 16 -12 3 4 -13 16 -21 21 -21
13z"/>
<path d="M2420 2023 c0 -9 6 -13 14 -10 8 3 17 -1 20 -9 3 -8 10 -14 16 -14
16 0 -12 38 -32 43 -11 3 -18 0 -18 -10z"/>
<path d="M3295 1917 c-12 -10 -15 -16 -6 -21 6 -4 18 -1 26 8 27 27 13 36 -20
13z"/>
<path d="M3233 1889 c14 -8 22 -8 30 0 8 8 3 11 -18 11 -26 -1 -28 -2 -12 -11z"/>
<path d="M2373 1845 l-28 -26 33 3 c20 2 36 -3 42 -11 7 -12 13 -12 36 4 21
13 25 20 14 23 -8 3 -21 11 -28 19 -20 19 -37 16 -69 -12z"/>
<path d="M2405 1776 c16 -52 17 -52 25 -31 6 13 9 15 9 5 0 -8 -4 -22 -9 -30
-7 -11 -10 -11 -10 -2 0 7 -4 11 -10 7 -5 -3 -6 -13 -3 -22 4 -9 2 -14 -3 -10
-6 3 -15 -7 -21 -23 -10 -27 -10 -29 16 -27 14 1 31 9 38 17 11 13 12 12 13
-4 0 -19 0 -19 21 0 22 19 22 19 14 -5 -6 -20 -4 -23 10 -18 9 4 23 7 31 7 8
0 14 5 14 10 0 6 -7 10 -15 10 -11 0 -14 7 -10 23 4 15 0 29 -14 41 -19 18
-20 17 -16 -13 5 -37 -6 -40 -22 -6 -6 15 -7 25 -1 25 14 0 1 17 -32 40 -23
16 -29 18 -25 6z m45 -86 c0 -5 -4 -10 -10 -10 -5 0 -10 5 -10 10 0 6 5 10 10
10 6 0 10 -4 10 -10z m-43 -32 c-3 -8 -6 -5 -6 6 -1 11 2 17 5 13 3 -3 4 -12
1 -19z"/>
<path d="M2530 1704 c0 -8 5 -12 10 -9 6 4 8 11 5 16 -9 14 -15 11 -15 -7z"/>
<path d="M2540 1685 c-8 -10 -9 -15 -1 -15 6 0 11 -6 11 -14 0 -8 7 -17 16
-20 13 -5 15 -1 9 21 -9 38 -20 47 -35 28z"/>
<path d="M2932 1608 c-7 -7 -12 -16 -12 -22 0 -5 6 -1 14 9 12 16 16 17 30 6
9 -7 16 -9 16 -3 0 5 -7 13 -16 16 -20 8 -18 8 -32 -6z"/>
<path d="M2890 1539 c0 -5 5 -7 10 -4 6 3 10 8 10 11 0 2 -4 4 -10 4 -5 0 -10
-5 -10 -11z"/>
<path d="M2906 1521 c-3 -5 5 -8 18 -7 13 0 22 4 19 9 -6 10 -31 9 -37 -2z"/>
<path d="M2948 1485 c-20 -27 -22 -35 -9 -35 5 0 11 9 14 21 3 12 10 18 16 14
6 -3 11 -2 11 4 0 20 -16 18 -32 -4z"/>
<path d="M2880 1485 c-11 -13 -10 -14 4 -9 9 3 16 10 16 15 0 13 -6 11 -20 -6z"/>
<path d="M2880 1453 c0 -4 5 -15 10 -23 8 -13 10 -13 10 2 0 9 -4 20 -10 23
-5 3 -10 3 -10 -2z"/>
<path d="M2985 1400 c-3 -5 -1 -10 4 -10 6 0 11 5 11 10 0 6 -2 10 -4 10 -3 0
-8 -4 -11 -10z"/>
<path d="M2983 1345 c-6 -14 -10 -25 -8 -25 8 0 35 32 35 41 0 18 -15 9 -27
-16z"/>
<path d="M2435 1300 c-3 -5 -1 -10 4 -10 6 0 11 5 11 10 0 6 -2 10 -4 10 -3 0
-8 -4 -11 -10z"/>
<path d="M2947 1259 c-10 -26 -20 -38 -28 -33 -7 4 -10 2 -7 -6 8 -24 27 -22
34 4 3 13 14 32 25 42 22 20 25 34 6 34 -8 0 -21 -18 -30 -41z"/>
<path d="M2830 1270 c0 -5 5 -10 11 -10 5 0 7 5 4 10 -3 6 -8 10 -11 10 -2 0
-4 -4 -4 -10z"/>
<path d="M2925 1179 c-4 -6 -5 -12 -2 -15 2 -3 7 2 10 11 7 17 1 20 -8 4z"/>
<path d="M2140 1044 c0 -8 5 -12 10 -9 6 3 10 10 10 16 0 5 -4 9 -10 9 -5 0
-10 -7 -10 -16z"/>
<path d="M2933 1043 c-15 -5 -17 -23 -4 -23 5 0 11 7 15 15 3 8 4 15 3 14 -1
0 -8 -3 -14 -6z"/>
<path d="M2520 1001 c0 -6 4 -13 10 -16 6 -3 7 1 4 9 -7 18 -14 21 -14 7z"/>
<path d="M3010 938 c2 -87 -8 -138 -26 -138 -15 0 -21 -21 -27 -97 -2 -29 0
-50 4 -47 15 9 19 -14 4 -26 -17 -14 -20 -56 -5 -65 8 -5 7 -11 -1 -21 -9 -11
-9 -18 -1 -26 16 -16 15 -41 0 -31 -7 4 -5 -5 5 -20 9 -14 17 -33 17 -42 0 -8
7 -15 15 -15 12 0 14 7 9 28 -7 24 -6 26 10 13 19 -16 32 -9 20 11 -10 15 -13
58 -3 58 3 0 11 -10 17 -22 10 -22 11 -22 12 7 l1 30 10 -25 c16 -38 4 -84
-47 -187 -52 -104 -132 -195 -243 -277 l-63 -46 1001 0 1001 0 0 153 0 153
-125 99 c-107 85 -138 104 -208 128 -103 36 -247 67 -310 67 -71 0 -362 100
-454 156 -162 98 -244 134 -358 158 -60 12 -125 31 -144 42 -67 38 -96 53
-104 54 -5 0 -8 -33 -7 -72z m44 -120 c22 -34 34 -101 28 -153 l-5 -46 -19 32
c-19 31 -23 49 -33 142 -6 51 5 61 29 25z"/>
<path d="M2830 955 c-7 -9 -8 -15 -2 -15 5 0 12 7 16 15 3 8 4 15 2 15 -2 0
-9 -7 -16 -15z"/>
<path d="M2922 942 c-31 -32 -23 -37 13 -8 15 12 24 25 19 28 -5 2 -19 -7 -32
-20z"/>
<path d="M2930 905 c-7 -8 -8 -15 -2 -15 5 0 15 7 22 15 7 8 8 15 2 15 -5 0
-15 -7 -22 -15z"/>
<path d="M2890 871 c0 -5 7 -12 16 -15 24 -9 27 -7 10 9 -17 17 -26 19 -26 6z"/>
<path d="M2760 850 c-8 -5 -12 -11 -9 -14 3 -3 14 1 25 9 21 16 8 20 -16 5z"/>
<path d="M2696 805 c-3 -8 -1 -15 4 -15 6 0 10 7 10 15 0 8 -2 15 -4 15 -2 0
-6 -7 -10 -15z"/>
<path d="M2985 390 c-3 -5 -1 -10 4 -10 6 0 11 5 11 10 0 6 -2 10 -4 10 -3 0
-8 -4 -11 -10z"/>
<path d="M1906 132 c-3 -6 -1 -14 5 -17 14 -9 20 -2 10 14 -6 8 -11 9 -15 3z"/>
<path d="M1940 75 c0 -8 5 -15 10 -15 6 0 10 7 10 15 0 8 -4 15 -10 15 -5 0
-10 -7 -10 -15z"/>
</g>
</svg>
