<?xml version="1.0" standalone="no"?>
<!DOCTYPE svg PUBLIC "-//W3C//DTD SVG 20010904//EN"
 "http://www.w3.org/TR/2001/REC-SVG-20010904/DTD/svg10.dtd">
<svg version="1.0" xmlns="http://www.w3.org/2000/svg"
 width="500.000000pt" height="500.000000pt" viewBox="0 0 500.000000 500.000000"
 preserveAspectRatio="xMidYMid meet">

<g transform="translate(0.000000,500.000000) scale(0.100000,-0.100000)"
fill="#000000" stroke="none">
<path d="M0 2500 l0 -2500 917 0 918 0 -35 24 c-34 23 -80 77 -80 93 1 4 9 -2
20 -15 11 -13 24 -21 30 -17 5 3 10 -1 10 -9 0 -10 6 -13 15 -10 8 4 15 2 15
-4 0 -5 7 -12 14 -15 10 -4 13 -1 9 9 -5 13 12 19 45 15 7 -1 12 9 12 24 0 28
25 35 44 11 6 -8 22 -17 34 -21 21 -6 23 -5 13 13 -14 27 -14 29 7 34 10 3 27
-1 36 -8 10 -7 24 -10 32 -7 8 3 14 -1 14 -11 0 -9 -4 -16 -10 -16 -5 0 -10
-5 -10 -11 0 -6 8 -9 17 -7 10 2 18 12 18 23 0 16 6 19 30 17 17 -2 32 -8 33
-13 6 -17 22 -9 22 11 0 11 7 20 15 20 8 0 15 -7 15 -15 0 -8 8 -15 18 -15 21
0 52 -29 52 -48 0 -7 8 -12 18 -13 14 0 14 -2 -3 -9 -11 -5 -18 -9 -15 -10 14
-4 84 -11 160 -16 78 -5 87 -3 104 15 16 17 16 21 4 21 -9 0 -21 7 -28 15 -10
13 -9 15 9 15 11 0 21 5 21 11 0 15 22 35 50 44 24 8 24 8 5 15 -18 7 -15 10
18 24 20 9 37 21 37 26 0 5 7 7 16 3 15 -5 15 -3 0 26 l-16 31 -51 -26 c-42
-23 -58 -26 -101 -21 -28 4 -54 10 -57 14 -6 8 -33 25 -78 48 -46 24 -91 105
-58 105 9 0 15 6 13 12 -3 7 1 19 8 26 11 11 18 10 40 -1 22 -12 33 -11 87 7
34 12 64 24 65 29 2 4 10 14 18 21 8 8 14 19 14 25 0 6 15 18 33 27 17 9 43
25 56 35 13 11 35 19 50 19 36 1 104 53 89 68 -9 9 -7 12 10 12 25 0 29 15 6
24 -21 8 -54 -11 -54 -31 0 -22 -47 -63 -72 -63 -12 0 -36 -11 -54 -25 -18
-14 -43 -25 -55 -25 -12 0 -27 -7 -34 -17 -11 -15 -16 -14 -59 7 -33 15 -45
27 -42 37 4 9 -1 17 -14 20 -11 3 -17 10 -14 15 3 5 -3 12 -15 15 -12 3 -21 9
-21 14 0 5 -7 9 -15 9 -9 0 -12 6 -9 15 4 9 0 15 -7 15 -11 0 -11 3 1 10 13 9
13 11 0 20 -13 8 -13 10 2 10 11 0 15 5 12 15 -4 11 1 15 17 16 52 2 89 7 103
12 8 3 17 1 20 -6 3 -9 5 -9 5 1 1 6 7 12 15 12 8 0 16 3 18 8 7 17 76 43 102
38 21 -4 26 -2 22 10 -3 8 1 14 9 14 8 0 15 7 15 15 0 21 27 19 39 -3 9 -15
10 -16 11 0 0 9 9 20 20 23 11 4 18 10 15 15 -7 12 16 28 50 34 l30 6 -27 -11
c-34 -13 -37 -29 -5 -23 l22 5 -22 -12 c-22 -12 -37 -45 -23 -54 4 -3 21 2 36
10 16 8 35 15 42 15 6 0 12 7 12 16 0 14 -1 14 -16 0 -8 -9 -20 -16 -25 -16
-15 0 -10 17 6 24 8 3 14 11 13 18 -2 7 4 14 12 14 32 3 35 5 21 13 -11 7 -9
10 8 16 15 4 20 12 17 22 -9 22 33 77 49 63 12 -10 32 3 34 23 1 4 1 8 2 10 7
22 5 37 -4 37 -7 1 2 7 18 14 29 12 38 26 64 89 14 36 14 50 -1 41 -8 -5 -9
-2 -5 10 5 13 3 16 -11 12 -13 -4 -22 1 -31 16 -15 28 -74 31 -79 5 -2 -10 2
-17 8 -17 6 0 9 4 6 8 -3 5 2 9 10 9 8 0 13 -6 10 -13 -3 -8 -1 -16 5 -19 5
-4 9 -3 8 2 -3 18 2 33 11 33 6 0 10 -9 10 -20 0 -11 -5 -20 -11 -20 -6 0 -8
-8 -5 -18 5 -13 2 -12 -11 4 -10 12 -33 24 -51 26 -22 3 -29 1 -22 -6 15 -15
12 -29 -5 -22 -8 3 -15 1 -15 -4 0 -6 -7 -10 -15 -10 -12 0 -11 -6 5 -35 16
-29 17 -35 5 -35 -11 0 -14 -7 -9 -25 3 -14 2 -25 -3 -25 -14 0 -34 40 -27 53
5 9 4 9 -5 1 -10 -9 -10 -17 -2 -32 14 -27 14 -82 0 -82 -7 0 -9 9 -5 24 5 20
2 23 -19 20 -19 -2 -25 2 -25 17 0 16 -6 19 -36 16 -30 -2 -35 -5 -31 -24 3
-15 0 -20 -10 -16 -7 3 -13 -1 -13 -10 0 -8 -10 -17 -22 -21 -19 -5 -21 -8 -8
-16 13 -8 13 -10 -2 -10 -11 0 -15 -5 -12 -15 4 -9 0 -15 -10 -15 -18 0 -22
15 -6 25 29 18 -7 67 -42 57 -20 -5 -19 -29 1 -25 6 2 11 -4 11 -12 0 -19 -16
-20 -23 -1 -3 7 -18 16 -34 19 -19 4 -33 15 -40 34 -12 28 -12 28 -10 -9 3
-43 -2 -47 -28 -18 -10 11 -21 18 -23 15 -3 -3 5 -17 19 -31 24 -25 24 -26 4
-40 -17 -13 -20 -12 -27 6 -4 11 -12 20 -18 20 -6 0 -8 -5 -4 -11 4 -7 1 -10
-7 -7 -8 2 -15 19 -17 36 -4 38 -22 43 -22 7 0 -14 -4 -25 -10 -25 -5 0 -10 5
-10 11 0 5 -5 7 -11 3 -7 -4 -7 1 1 16 11 20 10 22 -4 17 -9 -4 -16 -2 -16 3
0 9 14 14 31 12 4 -1 5 8 2 18 -7 25 -9 25 -35 0 -26 -24 -34 -19 -18 12 l12
23 -21 -22 c-25 -26 -55 -20 -48 8 3 11 2 17 -3 14 -4 -2 -16 5 -26 17 -17 19
-17 21 -1 15 24 -9 23 27 -2 52 -20 20 -20 20 1 23 l20 3 -21 27 c-12 14 -21
33 -21 41 0 9 -4 19 -10 22 -18 11 -10 23 15 21 14 0 25 -4 25 -7 0 -4 6 -7
13 -6 32 1 48 -4 42 -13 -8 -13 1 -13 26 0 15 8 19 7 19 -5 0 -19 9 -19 30 0
13 11 24 12 53 4 37 -10 53 -33 19 -27 -11 2 -19 -1 -19 -7 0 -17 41 -4 59 18
l17 22 -6 -22 c-3 -14 -1 -23 6 -23 6 0 11 5 11 10 0 6 7 10 15 10 8 0 15 4
15 9 0 5 8 8 18 7 10 0 16 5 13 14 -2 8 -7 29 -11 45 -5 17 -8 26 -9 21 -1 -6
-8 -1 -16 10 -15 18 -15 18 -8 0 4 -13 3 -17 -4 -13 -6 4 -13 2 -15 -5 -3 -7
-10 -8 -17 -4 -11 7 -11 10 0 17 7 4 11 11 7 14 -3 3 -13 -1 -21 -10 -17 -16
-32 -20 -22 -6 3 5 1 12 -5 16 -5 3 -10 1 -10 -5 0 -7 -6 -5 -15 4 -8 8 -15
17 -15 20 0 3 7 6 15 6 8 0 15 4 15 10 0 5 -7 7 -14 4 -31 -12 -99 47 -79 67
7 7 126 28 176 32 9 1 17 6 17 12 0 5 7 2 14 -8 11 -15 15 -15 19 -3 3 8 1 17
-6 20 -7 3 1 2 17 -1 19 -4 27 -2 23 4 -9 15 34 24 50 11 10 -8 13 -6 13 6 0
14 4 15 20 6 11 -6 25 -8 30 -5 6 3 7 -1 4 -9 -3 -9 -12 -16 -20 -16 -8 0 -14
-6 -14 -14 0 -8 -7 -17 -16 -20 -8 -3 -13 -10 -9 -16 7 -12 75 30 127 78 30
28 39 32 55 23 12 -7 14 -10 4 -11 -8 0 -12 -2 -9 -5 7 -7 39 5 34 14 -2 3 19
4 46 2 33 -2 48 0 44 7 -3 6 2 13 11 15 10 2 3 2 -14 0 -32 -4 -44 9 -23 22 8
5 7 11 -1 21 -9 12 -6 14 21 14 45 0 34 22 -21 40 -24 8 -51 19 -59 24 -13 9
-13 8 -1 -7 8 -11 9 -17 3 -17 -6 0 -16 8 -21 19 -10 17 -55 37 -75 32 -4 -1
-15 4 -22 10 -11 9 -18 9 -26 1 -9 -9 -9 -12 1 -12 7 0 9 -5 5 -11 -4 -7 -15
-1 -30 17 -13 16 -23 24 -24 17 0 -6 5 -15 10 -18 6 -3 10 -11 10 -16 0 -6 -5
-7 -11 -3 -6 3 -3 -5 6 -20 19 -29 35 -34 35 -11 0 22 21 18 27 -5 3 -12 11
-19 17 -17 14 5 35 -22 36 -45 0 -17 -15 -23 -50 -20 -8 1 -58 6 -109 12 -79
9 -104 8 -150 -6 -36 -10 -72 -13 -107 -9 -50 6 -78 -2 -166 -46 -36 -18 -47
-12 -35 21 9 23 17 30 39 30 15 0 28 5 28 10 0 6 6 10 14 10 7 0 19 7 26 15 7
8 16 13 20 10 4 -3 11 2 14 11 4 9 13 14 21 10 21 -8 45 3 45 20 0 11 -7 13
-27 8 -16 -4 -31 -12 -34 -17 -4 -5 -15 5 -24 23 -17 33 -17 34 5 52 14 11 27
15 34 10 6 -5 25 -12 41 -16 54 -13 90 -66 46 -66 -11 0 -22 -4 -26 -9 -3 -5
8 -9 25 -9 17 1 33 5 36 10 3 4 9 6 14 3 11 -7 7 12 -13 58 -15 34 -19 37 -44
31 l-28 -7 28 30 c29 31 39 66 13 44 -27 -23 -97 -3 -134 38 -30 33 -42 64
-42 107 0 22 -5 34 -13 34 -17 0 -18 61 -2 75 24 20 36 144 16 170 -4 5 -9 35
-10 65 -2 30 -3 64 -4 75 0 11 3 33 8 49 5 19 4 36 -4 48 -8 14 -8 18 0 18 7
0 3 8 -7 18 -23 20 -25 39 -6 51 7 4 14 14 15 22 2 8 7 21 12 29 7 12 6 13 -6
4 -8 -6 -29 -16 -47 -22 -31 -11 -32 -10 -26 14 5 21 3 25 -12 22 -13 -2 -20
4 -22 20 -2 12 -9 22 -16 22 -23 0 -35 42 -19 67 9 13 10 23 4 27 -5 4 -13 1
-16 -4 -5 -7 -12 -5 -21 7 -13 17 -13 17 -14 -4 0 -28 -15 -29 -65 -2 -43 23
-156 35 -152 17 1 -6 -4 -13 -12 -16 -8 -2 -11 0 -8 5 4 6 -19 9 -56 8 -98 -3
-119 16 -70 67 23 25 25 31 13 39 -10 7 -11 12 -4 15 6 3 19 11 29 18 15 11
16 15 4 34 -16 26 -25 28 -33 7 -4 -10 1 -15 14 -15 11 0 20 -4 20 -10 0 -11
-11 -13 -34 -4 -9 3 -16 17 -16 30 0 15 -6 24 -16 24 -8 0 -12 5 -9 10 4 6 16
8 28 4 20 -6 20 -5 5 10 -10 9 -23 15 -29 14 -18 -4 -23 30 -9 47 19 23 27 18
34 -20 8 -43 33 -47 33 -5 0 31 -11 40 -21 18 -3 -7 -4 -2 -3 12 3 34 23 53
47 45 21 -7 24 3 14 41 -4 16 -12 20 -27 17 -20 -4 -20 -3 -4 7 9 6 15 16 11
21 -8 14 36 60 49 52 6 -3 7 -1 3 6 -4 6 -2 19 5 27 6 8 9 17 5 21 -8 9 44 43
66 43 9 0 23 7 31 15 11 10 17 11 19 3 3 -8 13 -7 35 4 26 13 33 13 37 2 7
-18 111 -17 127 2 14 17 46 18 51 3 3 -8 19 -2 46 15 23 14 44 26 48 26 10 0
31 25 38 45 3 11 15 26 26 32 16 10 14 4 -10 -34 -28 -43 -31 -63 -10 -63 5 0
7 7 4 15 -7 18 7 20 23 4 8 -8 11 -6 10 6 -1 10 4 20 12 23 8 3 11 0 7 -7 -4
-6 -2 -11 3 -11 6 0 11 5 11 10 0 16 51 61 61 54 20 -12 8 -34 -18 -34 l-26 0
24 -23 c19 -18 29 -21 44 -14 16 8 18 7 7 -4 -23 -25 -12 -33 13 -9 14 13 28
20 32 17 3 -4 0 -7 -8 -8 -8 0 -5 -4 6 -8 26 -11 35 -5 35 21 0 19 25 47 41
48 16 0 16 -41 1 -50 -14 -8 -14 -11 -4 -18 8 -5 13 -12 13 -16 0 -3 2 -12 4
-19 6 -15 101 -21 110 -7 3 6 16 10 28 10 22 -1 22 -1 3 -15 -19 -14 -19 -15
6 -15 15 0 29 4 32 9 8 13 49 8 54 -7 2 -8 -2 -10 -15 -6 -17 7 -17 6 0 -12
17 -18 19 -18 31 -1 7 9 21 17 31 17 12 0 15 -5 11 -17 -3 -10 4 -5 17 10 26
31 37 25 52 -23 4 -14 16 -36 26 -49 11 -13 19 -35 19 -48 0 -14 4 -21 10 -18
6 4 10 -5 10 -20 0 -15 -4 -24 -10 -20 -5 3 -10 1 -10 -4 0 -6 4 -11 10 -11 5
0 7 -7 3 -15 -3 -9 -2 -15 3 -14 19 3 37 -1 31 -8 -4 -3 -1 -16 6 -27 24 -38
29 -59 12 -52 -28 10 -15 -19 18 -40 18 -11 31 -25 30 -31 -1 -6 4 -16 12 -23
7 -6 11 -18 8 -26 -3 -8 1 -22 9 -32 8 -9 15 -27 16 -40 0 -12 10 -36 22 -52
12 -17 19 -38 16 -46 -3 -8 -2 -13 3 -10 4 3 9 -20 9 -52 2 -90 2 -93 17 -162
9 -36 27 -88 41 -117 20 -41 26 -67 26 -123 1 -64 4 -74 28 -72 3 0 5 -13 6
-30 1 -19 -2 -25 -7 -17 -6 11 -9 10 -13 -1 -2 -8 -5 -22 -5 -30 -1 -40 -15
-116 -21 -120 -7 -4 -12 -33 -25 -140 -2 -14 -4 -27 -5 -30 -5 -13 -7 -29 -8
-77 -2 -48 -3 -51 -27 -48 -29 3 -30 -2 -10 -29 13 -17 15 -18 15 -3 0 9 5 17
11 17 14 0 3 -73 -28 -180 -20 -71 -25 -114 -29 -255 -4 -125 -9 -180 -21
-208 -12 -29 -14 -43 -5 -61 12 -27 19 -162 9 -173 -4 -3 -7 -14 -7 -24 0 -10
-10 -25 -21 -33 -20 -14 -21 -19 -12 -89 8 -69 7 -76 -11 -87 -19 -12 -19 -13
-1 -26 10 -8 13 -14 7 -14 -7 0 -12 -7 -12 -15 0 -8 7 -15 17 -15 15 0 15 -2
-1 -19 -14 -15 -15 -24 -7 -39 6 -11 8 -22 4 -25 -11 -11 20 -38 38 -34 10 3
20 0 23 -7 2 -6 3 10 1 36 -2 27 0 48 6 48 5 0 9 -6 9 -14 0 -17 18 -31 28
-21 3 3 0 10 -8 15 -8 5 -11 12 -7 17 15 14 28 -22 24 -67 -2 -27 -23 -85 -52
-145 -43 -89 -58 -110 -144 -194 -53 -52 -116 -107 -140 -123 l-45 -28 1062 0
1062 0 0 2500 0 2500 -2500 0 -2500 0 0 -2500z m2147 1844 c-3 -3 -12 -4 -19
-1 -8 3 -5 6 6 6 11 1 17 -2 13 -5z m370 -80 c99 -67 186 -108 325 -155 260
-88 421 -217 460 -366 6 -24 14 -43 17 -43 11 0 34 -81 85 -290 25 -102 61
-243 82 -315 40 -143 60 -237 69 -335 l6 -65 -35 95 c-44 124 -85 221 -100
240 -7 8 -25 40 -40 70 -16 30 -40 71 -54 90 -35 49 -296 304 -358 351 -29 21
-61 49 -72 63 -11 15 -23 26 -27 26 -4 0 -26 20 -49 44 -32 32 -54 46 -85 51
-23 4 -47 12 -54 19 -6 7 -20 15 -29 19 -10 3 -18 13 -18 22 0 20 17 19 29 -2
8 -14 10 -15 11 -3 0 10 3 11 8 3 12 -20 45 12 37 36 -9 30 -23 26 -17 -4 4
-22 1 -25 -19 -22 -13 2 -22 8 -19 13 3 5 11 7 19 6 9 -2 12 2 8 12 -3 8 -2
18 2 21 16 9 10 79 -7 92 -16 12 -16 13 0 7 14 -5 15 -1 8 32 -5 21 -6 42 -3
47 3 6 1 7 -5 3 -8 -5 -12 0 -12 12 0 11 -6 24 -12 30 -10 8 -13 2 -13 -28 0
-21 2 -37 5 -35 3 2 6 -7 6 -20 2 -23 2 -23 -29 -6 -31 17 -40 36 -52 104 -4
27 -27 62 -81 126 -41 49 -80 92 -87 94 -6 3 -2 6 10 6 12 1 52 -20 90 -45z
m-300 -47 c-6 -19 -23 -18 -23 2 0 11 5 17 14 14 7 -3 11 -10 9 -16z m-513
-105 c-4 -35 0 -64 15 -110 11 -35 18 -75 15 -90 -12 -68 -10 -113 5 -122 12
-7 12 -9 2 -10 -9 0 -11 -8 -7 -23 5 -20 -1 -25 -39 -39 -25 -10 -45 -15 -45
-12 0 12 30 34 42 32 9 -2 14 13 15 52 1 30 4 79 7 109 3 38 0 60 -11 77 -15
24 -27 142 -17 169 13 33 24 13 18 -33z m842 -129 c-27 -2 -60 -11 -75 -20
-24 -14 -25 -14 -7 1 19 15 17 16 -28 16 -33 0 -45 -3 -40 -12 4 -6 3 -8 -4
-4 -6 3 -23 2 -39 -4 -27 -10 -27 -9 -8 5 19 15 18 16 -20 11 -22 -3 -78 -8
-125 -10 -47 -3 -125 -12 -174 -21 -49 -9 -91 -14 -93 -11 -8 8 183 38 282 45
55 4 163 7 240 7 77 1 118 -1 91 -3z m-1081 -21 c-16 -12 -115 -152 -115 -163
0 -6 -4 -8 -8 -5 -8 5 -57 -51 -57 -64 0 -3 -15 -24 -32 -47 -18 -22 -29 -44
-25 -48 4 -5 2 -5 -5 -1 -6 3 -14 2 -18 -4 -10 -15 -35 -12 -35 5 0 8 5 15 11
15 6 0 9 6 6 14 -4 9 8 27 29 46 20 17 64 66 99 108 75 91 135 152 150 152 7
0 7 -3 0 -8z m772 -8 c-3 -3 -12 -4 -19 -1 -8 3 -5 6 6 6 11 1 17 -2 13 -5z
m-107 -19 c0 -8 -5 -15 -11 -15 -5 0 -8 4 -5 9 4 5 0 12 -6 14 -8 3 -6 6 5 6
9 1 17 -6 17 -14z m484 -9 c12 5 15 2 10 -10 -5 -12 -10 -13 -24 -6 -11 6 -22
16 -26 23 -6 9 -4 9 8 -1 8 -7 23 -10 32 -6z m-707 -2 c-3 -3 -12 -4 -19 -1
-8 3 -5 6 6 6 11 1 17 -2 13 -5z m101 -12 c2 -7 -1 -12 -8 -12 -6 0 -8 5 -4
11 4 8 -1 9 -17 4 -19 -5 -21 -4 -9 4 18 12 32 10 38 -7z m337 8 c3 -5 1 -10
-4 -10 -6 0 -11 5 -11 10 0 6 2 10 4 10 3 0 8 -4 11 -10z m65 6 c0 -3 -4 -8
-10 -11 -5 -3 -10 -1 -10 4 0 6 5 11 10 11 6 0 10 -2 10 -4z m107 -8 c-15 -10
-54 -10 -60 0 -3 4 12 7 34 7 22 1 33 -2 26 -7z m-1017 -38 c-1 -12 -4 -11
-15 4 -8 10 -12 23 -8 29 7 11 23 -12 23 -33z m125 30 c3 -5 2 -10 -4 -10 -5
0 -13 5 -16 10 -3 6 -2 10 4 10 5 0 13 -4 16 -10z m243 -7 c2 -7 -1 -13 -8
-13 -6 0 -9 4 -5 9 3 5 -3 12 -12 15 -15 4 -15 5 1 3 11 -1 21 -8 24 -14z
m-55 0 c-7 -2 -19 -2 -25 0 -7 3 -2 5 12 5 14 0 19 -2 13 -5z m544 -9 c-3 -3
-12 -4 -19 -1 -8 3 -5 6 6 6 11 1 17 -2 13 -5z m240 0 c-3 -3 -12 -4 -19 -1
-8 3 -5 6 6 6 11 1 17 -2 13 -5z m-1027 -29 c0 -8 -7 -15 -15 -15 -16 0 -20
12 -8 23 11 12 23 8 23 -8z m70 11 c0 -2 -7 -9 -15 -16 -13 -11 -14 -10 -9 4
5 14 24 23 24 12z m490 -6 c0 -5 -5 -10 -11 -10 -5 0 -7 5 -4 10 3 6 8 10 11
10 2 0 4 -4 4 -10z m130 6 c0 -3 -4 -8 -10 -11 -5 -3 -10 -1 -10 4 0 6 5 11
10 11 6 0 10 -2 10 -4z m120 0 c0 -3 -4 -8 -10 -11 -5 -3 -10 -1 -10 4 0 6 5
11 10 11 6 0 10 -2 10 -4z m120 -6 c0 -5 -2 -10 -4 -10 -3 0 -8 5 -11 10 -3 6
-1 10 4 10 6 0 11 -4 11 -10z m190 1 c0 -5 -7 -12 -16 -15 -14 -5 -15 -4 -4 9
14 17 20 19 20 6z m-405 -11 c-3 -5 -12 -10 -18 -10 -7 0 -6 4 3 10 19 12 23
12 15 0z m205 -28 c0 -1 -9 2 -20 8 -11 6 -20 15 -20 20 0 6 9 2 20 -7 11 -10
20 -19 20 -21z m100 24 c0 -3 -4 -8 -10 -11 -5 -3 -10 -1 -10 4 0 6 5 11 10
11 6 0 10 -2 10 -4z m40 -15 c0 -9 -24 -21 -42 -21 -6 0 -6 6 2 15 14 16 40
20 40 6z m-1367 -46 c-3 -9 -8 -14 -10 -11 -3 3 -2 9 2 15 9 16 15 13 8 -4z
m527 -20 c-14 -16 -25 -21 -16 -6 4 5 0 12 -6 14 -7 3 -2 6 11 6 20 1 21 -1
11 -14z m-120 -10 c4 3 14 -3 21 -12 11 -13 11 -15 1 -9 -7 4 -19 3 -27 -4 -9
-7 -15 -8 -20 0 -3 5 -2 10 4 10 6 0 9 6 7 13 -1 6 -1 9 1 4 3 -4 8 -5 13 -2z
m-75 -45 c3 -6 -1 -7 -9 -4 -18 7 -21 14 -7 14 6 0 13 -4 16 -10z m-16 -23 c6
-8 7 -17 3 -22 -4 -4 4 -4 18 0 l25 7 -25 -27 -25 -27 -3 33 c-2 19 -9 37 -15
41 -9 6 -9 8 -1 8 6 0 17 -6 23 -13z m-39 -77 c0 -5 -4 -10 -9 -10 -5 0 -18
-3 -28 -6 -16 -6 -16 -5 2 9 23 19 35 21 35 7z m-93 -16 c-3 -3 -12 -4 -19 -1
-8 3 -5 6 6 6 11 1 17 -2 13 -5z m-272 -14 c3 -5 1 -10 -4 -10 -6 0 -11 5 -11
10 0 6 2 10 4 10 3 0 8 -4 11 -10z m308 -44 c-20 -27 -43 -41 -43 -26 0 6 5
10 10 10 6 0 10 5 10 11 0 12 32 40 38 34 2 -2 -4 -15 -15 -29z m-43 0 c0 -3
-4 -8 -10 -11 -5 -3 -10 -1 -10 4 0 6 5 11 10 11 6 0 10 -2 10 -4z m707 -22
c-3 -3 -12 -4 -19 -1 -8 3 -5 6 6 6 11 1 17 -2 13 -5z m-721 -66 c-18 -26 -22
-17 -5 14 6 11 13 17 16 15 3 -3 -2 -16 -11 -29z m444 -8 c0 -5 -2 -10 -4 -10
-3 0 -8 5 -11 10 -3 6 -1 10 4 10 6 0 11 -4 11 -10z m-60 -76 c0 -8 -4 -12
-10 -9 -5 3 -10 10 -10 16 0 5 5 9 10 9 6 0 10 -7 10 -16z m-469 -41 c-15 -29
-40 -59 -41 -50 0 10 39 67 46 67 3 0 0 -8 -5 -17z m-51 -83 c-6 -11 -13 -20
-16 -20 -2 0 0 9 6 20 6 11 13 20 16 20 2 0 0 -9 -6 -20z m480 -26 c0 -8 -5
-12 -10 -9 -6 4 -8 11 -5 16 9 14 15 11 15 -7z m-274 -19 c-8 -8 -18 -15 -22
-15 -3 0 -1 7 6 15 7 8 17 15 22 15 5 0 3 -7 -6 -15z m179 -175 c3 -5 -1 -10
-10 -10 -9 0 -13 5 -10 10 3 6 8 10 10 10 2 0 7 -4 10 -10z m100 -201 c-4 -5
-12 -9 -18 -8 -9 0 -8 2 1 6 6 2 9 10 6 15 -4 7 -2 8 5 4 6 -4 9 -12 6 -17z
m-96 -72 c-2 -1 -13 -9 -24 -17 -19 -14 -19 -14 -6 3 7 9 18 17 24 17 6 0 8
-1 6 -3z m294 -91 c60 -27 130 -103 133 -146 2 -36 0 -36 -48 -6 -29 17 -35
25 -26 34 9 9 8 12 -4 12 -9 0 -18 -4 -20 -9 -1 -5 -12 -3 -23 6 -13 10 -14
14 -4 10 23 -8 19 22 -5 38 -12 7 -32 16 -46 20 -25 7 -25 7 -5 -12 11 -11 23
-16 26 -12 3 5 14 3 24 -5 19 -14 19 -14 -5 -14 -14 0 -43 -5 -65 -10 -27 -8
-43 -8 -52 -1 -7 6 -17 8 -23 4 -5 -3 -10 1 -10 10 0 9 4 14 9 11 5 -3 12 1
15 10 3 8 2 12 -4 9 -6 -3 -13 1 -17 10 -3 10 0 21 8 26 11 7 10 9 -6 10 -17
1 -16 2 5 9 41 13 108 11 143 -4z m-343 -10 c0 -3 -4 -8 -10 -11 -5 -3 -10 -1
-10 4 0 6 5 11 10 11 6 0 10 -2 10 -4z m156 -25 c-6 -9 -66 -33 -66 -26 0 6
52 34 63 35 5 0 6 -4 3 -9z m-191 -41 c-3 -5 -12 -10 -18 -10 -7 0 -6 4 3 10
19 12 23 12 15 0z m2002 -40 c11 -16 10 -21 -7 -30 -23 -12 -27 -30 -7 -30 25
0 54 -46 65 -106 12 -62 6 -127 -21 -214 -8 -25 -17 -79 -21 -120 -5 -50 -15
-90 -32 -120 -13 -25 -31 -59 -39 -77 -24 -52 -60 -73 -126 -73 -59 0 -89 15
-89 46 0 8 -5 14 -12 14 -6 0 -1 11 11 24 14 14 18 26 12 30 -12 8 -3 37 18
52 13 10 13 14 2 28 -8 9 -15 29 -17 44 -5 42 17 144 38 174 10 14 18 33 18
41 0 19 16 31 25 18 11 -19 35 0 29 24 -3 13 -1 32 5 43 6 11 11 44 12 73 2
56 22 98 72 152 31 32 48 34 64 7z m-1982 -30 c-3 -5 -10 -10 -16 -10 -5 0 -9
5 -9 10 0 6 7 10 16 10 8 0 12 -4 9 -10z m259 -21 c-3 -5 -10 -7 -15 -3 -5 3
-7 10 -3 15 3 5 10 7 15 3 5 -3 7 -10 3 -15z m144 0 c45 -19 61 -39 31 -39 -6
0 -7 5 -4 10 3 6 1 10 -4 10 -6 0 -11 -4 -11 -9 0 -11 -123 -71 -146 -71 -10
0 -3 12 20 34 24 22 36 42 36 60 0 32 12 33 78 5z m-243 -42 c11 -17 30 -37
43 -43 41 -20 38 -26 -11 -21 -26 3 -61 16 -78 28 l-30 21 22 24 c12 13 25 24
28 24 3 -1 15 -15 26 -33z m279 -33 c20 -8 21 -24 1 -24 -9 0 -18 -7 -21 -15
-4 -8 -11 -15 -16 -15 -6 0 -8 7 -4 15 4 13 2 13 -14 5 -10 -6 -23 -9 -27 -8
-4 2 -8 -1 -8 -7 0 -5 9 -9 20 -8 20 3 20 3 1 -12 -15 -11 -22 -12 -27 -3 -5
8 -19 7 -51 -5 -50 -20 -68 -21 -68 -7 0 6 14 13 30 17 17 3 30 9 30 14 0 8
43 30 95 47 38 13 40 13 59 6z m-594 -55 c0 -6 -4 -7 -10 -4 -5 3 -10 -1 -10
-9 0 -9 -4 -16 -10 -16 -20 0 -10 36 10 37 11 1 20 -3 20 -8z m442 -56 c-29
-14 -51 -27 -49 -29 9 -10 63 -10 81 -1 13 6 16 6 12 -2 -4 -6 -2 -11 4 -11 7
0 14 9 17 21 3 11 11 18 17 16 7 -3 20 1 31 9 10 8 25 14 33 14 12 0 12 -3 2
-15 -7 -9 -10 -19 -6 -23 4 -4 13 0 19 8 15 19 45 27 31 8 -10 -14 -9 -49 2
-86 5 -18 3 -21 -10 -16 -17 6 -23 -11 -7 -21 5 -3 9 -19 9 -36 -1 -17 5 -35
12 -39 12 -7 11 -21 -3 -82 -22 -99 -25 -134 -9 -130 6 1 12 -2 12 -8 0 -5 16
-16 35 -24 19 -8 35 -20 35 -25 0 -6 8 -11 19 -11 18 0 18 -2 2 -34 -17 -36
-36 -38 -27 -2 5 21 5 21 -10 1 -9 -11 -19 -26 -23 -33 -6 -10 -13 -11 -33 -1
-22 9 -29 8 -46 -9 -11 -11 -17 -24 -14 -27 4 -4 -2 -5 -14 -1 -12 4 -32 2
-45 -4 -21 -9 -20 -9 9 -4 17 3 32 2 32 -3 -1 -16 -29 -45 -38 -39 -6 3 -13 0
-15 -6 -4 -8 -6 -7 -6 4 -1 9 -6 20 -13 24 -6 4 -8 3 -4 -4 3 -6 2 -13 -4 -17
-13 -8 -13 11 -1 34 6 10 6 23 1 31 -7 12 -17 10 -58 -9 -43 -20 -53 -21 -90
-11 -34 9 -42 15 -42 34 0 13 -6 29 -14 36 -8 6 -12 18 -9 26 3 9 0 14 -8 12
-8 -2 -12 3 -10 12 3 8 5 25 5 38 1 12 4 22 8 22 4 0 7 16 6 36 -1 27 -7 39
-24 46 -13 6 -20 16 -17 24 7 19 -29 62 -47 56 -8 -3 -21 -12 -28 -21 -11 -14
-11 -12 -2 7 13 27 6 57 -11 46 -8 -4 -9 0 -4 15 4 13 1 28 -5 36 -10 12 -9
15 4 15 9 0 16 5 16 11 0 5 -4 8 -9 4 -5 -3 -12 -1 -15 4 -4 5 -2 12 4 16 5 3
10 14 10 24 0 10 7 24 15 31 11 9 15 10 15 0 0 -7 11 -3 27 9 20 16 34 20 60
15 18 -3 39 -2 46 4 6 5 29 12 49 16 21 4 57 16 80 26 24 11 48 19 53 19 6 0
-14 -12 -43 -26z m-477 -24 c6 1 10 -2 10 -6 -1 -23 -29 -153 -32 -149 -10 9
-14 96 -7 146 5 40 9 49 13 32 3 -13 11 -23 16 -23z m155 -169 c0 -5 -4 -10
-9 -10 -6 0 -13 5 -16 10 -3 6 1 10 9 10 9 0 16 -4 16 -10z m-441 -76 c7 -26
9 -49 6 -52 -11 -11 -24 13 -31 56 -9 58 10 55 25 -4z m461 16 c0 -5 -2 -10
-4 -10 -3 0 -8 5 -11 10 -3 6 -1 10 4 10 6 0 11 -4 11 -10z m1 -73 c-10 -9
-11 -8 -5 6 3 10 9 15 12 12 3 -3 0 -11 -7 -18z m578 -8 c9 -27 9 -30 -4 -19
-8 7 -15 21 -15 31 0 28 7 23 19 -12z m-542 -11 c-3 -8 -6 -5 -6 6 -1 11 2 17
5 13 3 -3 4 -12 1 -19z m-391 -23 c3 -14 4 -34 1 -46 -3 -11 -2 -33 3 -50 5
-18 5 -27 -1 -24 -5 4 -9 -2 -9 -11 0 -37 -13 -2 -24 65 -8 48 -9 74 -2 81 16
16 25 12 32 -15z m417 0 c-3 -9 -8 -14 -10 -11 -3 3 -2 9 2 15 9 16 15 13 8
-4z m47 5 c0 -5 -4 -10 -10 -10 -5 0 -10 5 -10 10 0 6 5 10 10 10 6 0 10 -4
10 -10z m480 -40 c0 -5 -4 -10 -10 -10 -5 0 -10 5 -10 10 0 6 5 10 10 10 6 0
10 -4 10 -10z m-499 -61 c-10 -25 -11 -23 -15 23 -1 23 1 26 12 15 9 -10 10
-20 3 -38z m9 -49 c0 -5 -4 -10 -10 -10 -5 0 -10 5 -10 10 0 6 5 10 10 10 6 0
10 -4 10 -10z m-435 -28 c-3 -3 -11 0 -18 7 -9 10 -8 11 6 5 10 -3 15 -9 12
-12z m325 8 c0 -5 -5 -10 -11 -10 -5 0 -7 5 -4 10 3 6 8 10 11 10 2 0 4 -4 4
-10z m-210 -20 c-12 -23 -30 -26 -49 -7 -10 10 -11 8 -5 -7 5 -13 4 -17 -4
-12 -7 4 -12 15 -12 25 0 14 9 18 40 19 38 2 40 0 30 -18z m1525 -68 c8 -21
-17 -9 -34 17 -15 23 -15 24 7 10 12 -7 24 -20 27 -27z m-1095 4 c0 -3 -4 -8
-10 -11 -5 -3 -10 -1 -10 4 0 6 5 11 10 11 6 0 10 -2 10 -4z m-477 -88 c-2 -4
11 -5 29 -2 l33 6 -30 -17 c-29 -16 -30 -16 -52 12 -31 38 -30 64 0 32 13 -13
22 -27 20 -31z m1247 33 c0 -11 -59 -26 -67 -18 -3 3 -2 10 2 16 8 13 65 15
65 2z m-210 -30 c0 -5 10 -7 23 -4 18 4 19 3 7 -6 -22 -16 -50 -13 -50 4 0 8
5 15 10 15 6 0 10 -4 10 -9z m-411 -30 c9 -6 10 -10 2 -16 -16 -9 -44 2 -36
15 8 12 16 12 34 1z m85 -73 c-3 -5 10 -41 29 -81 46 -94 53 -119 33 -111 -9
3 -16 16 -16 28 -1 26 -20 51 -40 52 -8 1 -24 3 -35 5 -15 3 -21 -3 -25 -25
-4 -24 -7 -27 -17 -15 -25 30 -19 97 10 129 21 23 73 38 61 18z m228 -65 c47
-18 98 -52 98 -65 0 -13 -28 -9 -34 5 -5 9 -7 9 -12 0 -3 -8 -11 -9 -22 -3
-18 9 -55 22 -60 20 -10 -3 -28 28 -24 42 5 22 2 22 54 1z m108 -23 c0 -5 -4
-10 -10 -10 -5 0 -10 5 -10 10 0 6 5 10 10 10 6 0 10 -4 10 -10z m50 -34 c0
-2 -7 -6 -15 -10 -8 -3 -15 -1 -15 4 0 6 7 10 15 10 8 0 15 -2 15 -4z m-405
-26 c3 -5 2 -10 -4 -10 -5 0 -13 5 -16 10 -3 6 -2 10 4 10 5 0 13 -4 16 -10z
m150 -60 c-9 -14 -25 5 -25 30 0 12 3 12 16 -2 9 -9 13 -21 9 -28z m-488 -47
c-3 -10 -5 -4 -5 12 0 17 2 24 5 18 2 -7 2 -21 0 -30z m1353 -33 c0 -5 -2 -10
-4 -10 -3 0 -8 5 -11 10 -3 6 -1 10 4 10 6 0 11 -4 11 -10z m-865 -120 c3 -5
1 -10 -4 -10 -6 0 -11 5 -11 10 0 6 2 10 4 10 3 0 8 -4 11 -10z m98 -61 c-4
-15 -9 -17 -19 -8 -7 6 -19 7 -25 3 -8 -4 -9 -3 -5 4 4 7 14 12 22 12 8 0 12
4 9 10 -3 5 0 7 8 4 9 -3 13 -13 10 -25z m539 -11 c-7 -7 -18 -13 -26 -14 -20
-3 -8 24 12 29 23 5 28 -1 14 -15z m-507 -28 c3 -5 -1 -10 -10 -10 -9 0 -13 5
-10 10 3 6 8 10 10 10 2 0 7 -4 10 -10z m455 0 c0 -5 -5 -10 -11 -10 -5 0 -7
5 -4 10 3 6 8 10 11 10 2 0 4 -4 4 -10z m-240 -10 c0 -5 -5 -10 -11 -10 -5 0
-7 5 -4 10 3 6 8 10 11 10 2 0 4 -4 4 -10z m-233 -23 c-6 -19 -23 -18 -24 2
-1 14 3 18 13 14 8 -3 13 -10 11 -16z m290 -8 c-14 -8 -22 -8 -30 0 -8 8 -3
11 19 11 25 -1 27 -2 11 -11z m-275 -21 c-7 -7 -12 -8 -12 -2 0 14 12 26 19
19 2 -3 -1 -11 -7 -17z m38 1 c0 -5 -4 -9 -8 -9 -5 0 -9 7 -9 15 0 8 4 12 9 9
4 -3 8 -9 8 -15z m920 -144 c6 -30 7 -67 3 -90 l-9 -38 -16 25 c-10 15 -21 52
-27 85 -8 51 -8 74 -2 118 3 22 41 -53 51 -100z m-1791 -265 c0 -23 -1 -23 -9
-5 -5 11 -9 29 -9 40 -1 17 1 17 9 5 5 -8 9 -26 9 -40z m551 -41 c0 -5 -7 -9
-15 -9 -8 0 -15 7 -15 15 0 9 6 12 15 9 8 -4 15 -10 15 -15z m-35 -44 c48 -8
89 -26 111 -50 25 -27 24 -45 -2 -45 -8 0 -14 -7 -14 -15 0 -8 5 -15 12 -15 9
0 9 -3 0 -12 -7 -7 -12 -20 -12 -29 0 -9 -7 -20 -16 -23 -11 -4 -15 -2 -11 8
3 7 0 19 -6 25 -8 8 -6 11 7 11 27 0 9 18 -25 25 -22 5 -28 10 -20 18 7 7 18
7 35 -1 22 -10 25 -9 23 8 -1 15 -6 18 -27 13 -22 -6 -24 -5 -11 10 7 10 12
18 10 18 -22 7 -59 6 -59 -2 0 -5 5 -9 12 -9 9 0 9 -3 1 -11 -20 -20 -40 -4
-35 29 3 24 0 30 -18 35 -13 3 -19 10 -15 17 4 6 14 8 24 5 9 -4 25 -8 36 -10z
m85 5 c0 -5 -4 -10 -10 -10 -5 0 -10 5 -10 10 0 6 5 10 10 10 6 0 10 -4 10
-10z m-18 -210 c15 0 28 -4 28 -10 0 -5 -7 -7 -15 -4 -20 8 -20 -20 1 -40 14
-15 14 -16 -3 -16 -11 0 -24 5 -30 11 -8 8 -13 8 -17 0 -4 -6 4 -15 18 -21 14
-5 26 -15 26 -21 0 -7 -7 -8 -17 -4 -10 4 -28 8 -40 9 -25 1 -44 16 -20 16 10
0 15 8 15 23 -1 12 -1 35 0 52 2 22 5 26 14 17 7 -7 25 -12 40 -12z m104 -76
c-3 -9 -6 -20 -6 -25 0 -5 -4 -9 -10 -9 -11 0 -14 33 -3 43 12 13 25 7 19 -9z
m312 -102 c6 -18 -15 -14 -22 4 -4 10 -1 14 6 12 6 -2 14 -10 16 -16z m9 -28
c-3 -3 -12 -4 -19 -1 -8 3 -5 6 6 6 11 1 17 -2 13 -5z"/>
<path d="M2590 4180 c0 -5 5 -10 11 -10 5 0 7 5 4 10 -3 6 -8 10 -11 10 -2 0
-4 -4 -4 -10z"/>
<path d="M2645 4100 c3 -5 8 -10 11 -10 2 0 4 5 4 10 0 6 -5 10 -11 10 -5 0
-7 -4 -4 -10z"/>
<path d="M2720 3772 c0 -6 9 -14 20 -17 11 -3 26 -12 33 -20 8 -8 19 -10 27
-5 10 6 2 13 -26 26 -21 10 -42 20 -46 22 -5 2 -8 -1 -8 -6z"/>
<path d="M3303 3515 c0 -22 2 -30 4 -17 2 12 2 30 0 40 -3 9 -5 -1 -4 -23z"/>
<path d="M3301 3454 c0 -11 3 -14 6 -6 3 7 2 16 -1 19 -3 4 -6 -2 -5 -13z"/>
<path d="M3302 3398 c0 -17 -4 -48 -7 -69 -4 -26 -3 -39 4 -39 6 0 12 17 12
38 1 20 3 49 5 64 1 15 -1 30 -5 32 -4 3 -8 -9 -9 -26z"/>
<path d="M1930 2650 c8 -5 20 -10 25 -10 6 0 3 5 -5 10 -8 5 -19 10 -25 10 -5
0 -3 -5 5 -10z"/>
<path d="M2060 2525 c33 -19 49 -19 24 0 -10 8 -26 14 -34 14 -9 0 -4 -6 10
-14z"/>
<path d="M3496 2031 c-12 -13 -14 -21 -6 -26 6 -4 18 1 25 11 27 36 11 48 -19
15z"/>
<path d="M3423 2003 c9 -2 23 -2 30 0 6 3 -1 5 -18 5 -16 0 -22 -2 -12 -5z"/>
<path d="M1818 2273 c7 -3 16 -2 19 1 4 3 -2 6 -13 5 -11 0 -14 -3 -6 -6z"/>
<path d="M1632 2104 c1 -9 9 -19 16 -22 9 -3 13 2 10 14 -1 9 -9 19 -16 22 -9
3 -13 -2 -10 -14z"/>
<path d="M1705 2000 c-3 -6 1 -7 9 -4 18 7 21 14 7 14 -6 0 -13 -4 -16 -10z"/>
<path d="M1750 1904 c0 -8 5 -12 10 -9 6 3 10 10 10 16 0 5 -4 9 -10 9 -5 0
-10 -7 -10 -16z"/>
<path d="M1402 2210 c0 -14 2 -19 5 -12 2 6 2 18 0 25 -3 6 -5 1 -5 -13z"/>
<path d="M1975 1418 c0 -21 0 -38 1 -38 1 0 6 12 12 28 6 19 6 31 -2 38 -8 8
-11 0 -11 -28z"/>
<path d="M2405 3491 c-21 -4 -26 -9 -17 -15 16 -10 62 1 62 14 0 11 0 11 -45
1z"/>
<path d="M1820 3290 c-9 -6 -10 -10 -3 -10 6 0 15 5 18 10 8 12 4 12 -15 0z"/>
<path d="M1828 3233 c7 -3 16 -2 19 1 4 3 -2 6 -13 5 -11 0 -14 -3 -6 -6z"/>
<path d="M1760 3164 c0 -8 5 -12 10 -9 6 3 10 10 10 16 0 5 -4 9 -10 9 -5 0
-10 -7 -10 -16z"/>
<path d="M1790 3160 c0 -5 5 -10 11 -10 5 0 7 5 4 10 -3 6 -8 10 -11 10 -2 0
-4 -4 -4 -10z"/>
<path d="M1764 3089 c-3 -6 0 -15 7 -20 12 -8 12 -10 1 -18 -10 -6 -7 -10 13
-15 35 -9 57 -1 73 25 12 19 11 20 -7 14 -12 -4 -30 0 -43 9 -27 19 -35 20
-44 5z"/>
<path d="M2857 2959 c-10 -11 -16 -27 -13 -35 7 -17 -6 -18 -22 -2 -9 9 -12 9
-12 -1 0 -11 -3 -11 -15 -1 -15 13 -39 5 -30 -11 9 -13 -9 -11 -23 3 -7 7 -12
9 -12 5 0 -4 -9 -3 -21 3 -16 9 -24 8 -38 -4 -11 -10 -25 -14 -37 -9 -16 5
-17 4 -7 -8 9 -11 6 -14 -15 -16 -87 -6 -142 -28 -142 -56 0 -6 8 -3 18 6 10
9 23 13 30 8 7 -4 -1 -12 -23 -20 -29 -10 -34 -16 -29 -35 3 -13 0 -27 -9 -34
-11 -9 -13 -6 -9 18 2 17 0 30 -6 30 -14 0 -25 -65 -17 -101 4 -17 2 -36 -4
-43 -9 -11 -10 -39 -2 -111 2 -15 5 -13 12 10 5 17 6 38 3 47 -3 11 5 22 26
34 20 12 28 24 25 34 -3 10 0 17 9 17 9 0 13 -4 10 -9 -12 -20 46 -5 82 20 48
35 154 67 214 66 25 0 76 -13 113 -28 72 -29 110 -29 86 0 -18 22 -65 44 -86
41 -10 -1 -18 3 -18 8 0 6 24 9 58 8 32 -2 56 1 53 6 -3 5 5 8 19 7 23 -1 24
-2 8 -13 -9 -7 -20 -13 -25 -13 -4 0 -8 -5 -8 -10 0 -6 6 -10 13 -9 22 2 56
-13 53 -24 -2 -7 -1 -9 1 -4 3 4 9 7 14 7 12 0 49 -38 49 -51 0 -5 5 -7 10 -4
18 11 11 81 -10 100 -12 11 -16 21 -11 25 7 4 4 19 -6 42 -12 26 -30 42 -71
62 -30 15 -57 25 -60 22 -3 -3 -20 5 -38 19 -40 30 -64 32 -87 4z m46 -106
c-7 -2 -19 -2 -25 0 -7 3 -2 5 12 5 14 0 19 -2 13 -5z m192 -63 c3 -6 -1 -7
-9 -4 -18 7 -21 14 -7 14 6 0 13 -4 16 -10z m40 -60 c3 -5 1 -10 -4 -10 -6 0
-11 5 -11 10 0 6 2 10 4 10 3 0 8 -4 11 -10z m-602 -35 c-3 -9 -8 -14 -10 -11
-3 3 -2 9 2 15 9 16 15 13 8 -4z"/>
<path d="M3070 2950 c0 -5 5 -10 11 -10 5 0 7 5 4 10 -3 6 -8 10 -11 10 -2 0
-4 -4 -4 -10z"/>
<path d="M2379 2768 c4 -13 6 -30 4 -38 -3 -10 0 -9 7 3 12 18 5 57 -10 57 -6
0 -6 -10 -1 -22z"/>
<path d="M2220 2766 c0 -14 20 -36 32 -36 17 0 7 38 -12 43 -12 3 -20 0 -20
-7z"/>
<path d="M2290 2745 c7 -9 15 -13 17 -11 7 7 -7 26 -19 26 -6 0 -6 -6 2 -15z"/>
<path d="M2673 2722 c-42 -17 -97 -76 -130 -139 -9 -18 -22 -33 -29 -33 -6 0
-14 -6 -17 -14 -3 -8 1 -13 10 -12 9 0 18 -5 21 -13 3 -10 0 -12 -12 -8 -17 7
-20 -1 -10 -27 8 -20 18 -20 39 0 18 19 130 30 140 14 4 -6 11 -8 16 -4 6 3
19 -2 29 -11 18 -17 20 -16 31 9 7 15 20 26 31 26 23 0 78 52 78 73 0 23 24
27 50 7 21 -16 22 -20 10 -35 -18 -22 -47 -36 -84 -42 -49 -8 -60 -17 -40 -34
11 -9 15 -9 10 -1 -4 6 -2 12 3 12 6 0 11 -4 11 -9 0 -14 52 -8 68 7 7 6 22
12 32 12 10 0 22 5 25 11 4 5 19 9 33 7 19 -2 26 1 24 11 -2 11 0 12 11 3 11
-10 19 -8 38 8 17 13 20 19 9 20 -25 0 -66 43 -62 65 2 15 1 17 -6 6 -10 -14
-52 -7 -52 10 0 9 8 11 48 12 35 0 26 11 -35 41 -36 18 -52 22 -44 12 8 -10 9
-16 3 -16 -6 0 -13 4 -16 9 -9 13 -66 22 -83 12 -11 -6 -12 -10 -4 -15 6 -4
11 -3 11 3 0 5 12 4 28 -5 15 -7 37 -14 50 -14 13 0 22 -6 22 -16 0 -9 -5 -12
-11 -8 -7 4 -41 6 -77 5 -50 -1 -69 2 -85 16 -14 13 -21 15 -24 6 -8 -21 -26
-14 -20 7 3 11 0 20 -6 20 -17 0 4 17 28 23 l20 5 -20 0 c-11 1 -39 -7 -62
-16z m127 -112 c0 -5 -4 -10 -10 -10 -5 0 -10 5 -10 10 0 6 5 10 10 10 6 0 10
-4 10 -10z m-100 -28 c0 -20 35 -62 51 -62 6 0 8 -4 5 -9 -3 -4 -29 -4 -58 2
-29 5 -72 9 -96 9 -23 0 -40 4 -37 9 4 5 12 9 20 9 7 0 15 3 17 8 3 8 79 51
91 52 4 0 7 -8 7 -18z m-137 -27 c-17 -23 -33 -32 -33 -18 0 9 33 42 43 42 4
1 0 -10 -10 -24z"/>
<path d="M3050 2690 c0 -5 5 -10 10 -10 6 0 10 5 10 10 0 6 -4 10 -10 10 -5 0
-10 -4 -10 -10z"/>
<path d="M2510 2645 c-14 -16 -10 -18 14 -9 9 3 16 10 16 15 0 14 -16 11 -30
-6z"/>
<path d="M2486 2564 c-8 -22 -4 -25 11 -9 7 8 9 16 4 19 -5 3 -12 -1 -15 -10z"/>
<path d="M2420 2502 c0 -13 5 -32 11 -43 8 -16 13 -18 24 -9 11 9 15 7 21 -14
10 -43 25 -29 17 17 -3 23 -13 47 -22 54 -20 14 -29 7 -13 -9 14 -14 16 -28 2
-28 -5 0 -16 12 -24 28 -15 26 -15 26 -16 4z"/>
<path d="M2626 2481 c-3 -5 10 -19 29 -31 27 -17 58 -24 122 -28 63 -4 84 -2
79 6 -4 7 -17 10 -29 8 -12 -2 -53 8 -91 20 -38 13 -72 22 -74 19 -3 -3 -11 0
-18 6 -8 6 -14 6 -18 0z"/>
<path d="M2578 2152 c-10 -2 -18 -8 -18 -14 0 -5 6 -8 13 -5 6 2 20 -2 30 -11
19 -17 23 -5 4 18 -7 9 -20 14 -29 12z"/>
<path d="M2260 2120 c8 -5 20 -10 25 -10 6 0 3 5 -5 10 -8 5 -19 10 -25 10 -5
0 -3 -5 5 -10z"/>
<path d="M2513 1954 l-28 -25 37 3 c30 3 38 0 40 -14 3 -17 5 -16 38 4 30 18
32 23 16 26 -11 2 -26 10 -34 18 -20 20 -37 17 -69 -12z"/>
<path d="M2549 1853 c-1 -21 -1 -44 0 -52 2 -7 -2 -10 -7 -7 -5 3 -12 -2 -15
-12 -2 -9 -8 -26 -12 -37 -7 -16 -6 -18 6 -7 7 6 23 12 36 12 13 0 23 5 23 10
0 6 5 10 10 10 6 0 10 -8 10 -17 0 -13 3 -14 12 -5 17 17 28 15 21 -4 -5 -13
-2 -15 18 -9 32 10 36 15 21 24 -7 4 -10 15 -6 24 3 9 -1 25 -9 37 -13 18 -15
19 -21 5 -3 -9 -4 -21 -1 -25 3 -5 1 -11 -5 -15 -5 -3 -10 1 -10 9 0 8 -8 20
-17 25 -11 6 -13 11 -5 11 7 0 10 5 7 10 -10 16 -23 12 -30 -11 -4 -11 -9 -19
-11 -16 -3 2 0 15 5 28 6 17 5 28 -5 37 -12 11 -14 7 -15 -25z"/>
<path d="M3070 1609 c0 -4 11 -6 24 -5 13 0 22 4 20 8 -6 9 -44 6 -44 -3z"/>
<path d="M3130 1585 c0 -8 -4 -15 -10 -15 -5 0 -10 -8 -10 -17 1 -17 1 -17 11
0 5 9 17 17 24 17 20 0 19 16 0 24 -9 3 -15 0 -15 -9z"/>
<path d="M3051 1576 c-9 -11 -9 -16 0 -22 7 -4 9 -3 5 4 -3 5 0 12 6 15 7 2
10 7 7 11 -3 4 -12 0 -18 -8z"/>
<path d="M3062 1520 c0 -14 2 -19 5 -12 2 6 2 18 0 25 -3 6 -5 1 -5 -13z"/>
<path d="M3170 1428 c0 -19 2 -20 10 -8 13 19 13 30 0 30 -5 0 -10 -10 -10
-22z"/>
<path d="M3130 1361 c-5 -11 -12 -30 -14 -43 -2 -14 -10 -22 -20 -22 -19 2
-17 -17 2 -24 6 -2 22 17 34 42 12 25 26 46 30 46 4 0 8 5 8 10 0 17 -29 11
-40 -9z"/>
<path d="M3001 1344 c0 -11 3 -14 6 -6 3 7 2 16 -1 19 -3 4 -6 -2 -5 -13z"/>
<path d="M3090 1239 c0 -5 5 -7 10 -4 6 3 10 8 10 11 0 2 -4 4 -10 4 -5 0 -10
-5 -10 -11z"/>
<path d="M2277 1123 c-4 -3 -7 -13 -7 -22 1 -13 3 -13 11 2 11 19 8 33 -4 20z"/>
<path d="M3100 1095 c-8 -9 -8 -15 -2 -15 12 0 26 19 19 26 -2 2 -10 -2 -17
-11z"/>
<path d="M2590 1074 c0 -8 5 -12 10 -9 6 4 8 11 5 16 -9 14 -15 11 -15 -7z"/>
<path d="M2670 1061 c0 -6 4 -13 10 -16 6 -3 7 1 4 9 -7 18 -14 21 -14 7z"/>
<path d="M3000 1010 c-9 -6 -10 -10 -3 -10 6 0 15 5 18 10 8 12 4 12 -15 0z"/>
<path d="M3106 1005 c-11 -8 -16 -18 -12 -22 4 -5 13 0 20 9 7 10 17 14 21 10
5 -4 5 -1 1 6 -9 15 -7 15 -30 -3z"/>
<path d="M3105 960 c-10 -11 -13 -20 -8 -20 13 0 38 29 31 35 -3 3 -13 -4 -23
-15z"/>
<path d="M3066 921 c-3 -5 3 -11 15 -14 16 -4 18 -3 8 9 -13 16 -16 17 -23 5z"/>
<path d="M2919 893 c-13 -15 -12 -15 9 -4 23 12 28 21 13 21 -5 0 -15 -7 -22
-17z"/>
<path d="M3165 460 c-5 -8 -4 -15 2 -17 6 -2 9 -14 7 -26 -3 -13 -1 -16 2 -7
4 8 11 18 15 21 5 3 3 13 -4 24 -11 14 -16 15 -22 5z"/>
<path d="M2078 33 c7 -3 16 -2 19 1 4 3 -2 6 -13 5 -11 0 -14 -3 -6 -6z"/>
</g>
</svg>
