<?xml version="1.0" standalone="no"?>
<!DOCTYPE svg PUBLIC "-//W3C//DTD SVG 20010904//EN"
 "http://www.w3.org/TR/2001/REC-SVG-20010904/DTD/svg10.dtd">
<svg version="1.0" xmlns="http://www.w3.org/2000/svg"
 width="472.000000pt" height="413.000000pt" viewBox="0 0 472.000000 413.000000"
 preserveAspectRatio="xMidYMid meet">

<g transform="translate(0.000000,413.000000) scale(0.100000,-0.100000)"
fill="#000000" stroke="none">
<path d="M1890 4110 c-47 -4 -104 -13 -128 -19 -53 -15 -110 -64 -133 -116
-23 -49 -25 -152 -4 -200 10 -26 12 -57 8 -122 -5 -73 -4 -85 8 -78 12 7 12 6
1 -7 -7 -8 -10 -22 -7 -30 4 -11 -5 -20 -32 -31 -39 -15 -59 -13 -33 3 13 8
12 10 -2 10 -10 0 -18 5 -18 10 0 6 4 10 10 10 5 0 6 8 3 17 -5 13 -2 15 11
10 10 -4 20 -7 23 -7 3 0 0 -7 -7 -15 -11 -13 -10 -14 5 -9 14 6 16 4 10 -7
-4 -8 -5 -11 0 -7 11 11 13 209 2 238 -6 14 -9 31 -8 38 1 6 -3 12 -8 12 -9 0
-8 17 4 105 l5 30 -33 -36 c-17 -20 -63 -63 -102 -95 -38 -32 -74 -63 -80 -69
-31 -32 -108 -141 -108 -152 0 -7 -4 -10 -8 -8 -4 3 -19 -11 -33 -30 -15 -19
-24 -35 -20 -35 3 0 -8 -16 -25 -35 -17 -20 -31 -40 -31 -46 0 -6 -4 -7 -10
-4 -5 3 -10 -1 -10 -10 0 -23 -22 -13 -37 16 -13 24 -13 24 -13 2 0 -13 -4
-23 -9 -23 -15 0 -31 -58 -42 -158 -10 -78 -9 -114 4 -201 22 -149 28 -223 16
-215 -6 3 -9 0 -8 -7 2 -8 -3 -45 -10 -82 -7 -37 -11 -90 -9 -118 3 -27 1 -52
-3 -55 -14 -8 -10 -85 7 -144 8 -30 20 -95 25 -144 l9 -90 -26 -21 c-22 -18
-26 -27 -21 -56 15 -89 27 -137 41 -165 9 -17 16 -42 16 -55 -1 -13 -1 -36 -2
-51 0 -14 12 -52 26 -83 14 -32 26 -67 26 -79 0 -53 55 -221 107 -325 46 -94
71 -130 132 -194 42 -44 112 -105 156 -136 44 -32 80 -64 80 -71 0 -9 -30 -24
-76 -40 -42 -14 -87 -33 -100 -41 -13 -9 -45 -23 -71 -32 -26 -8 -78 -35 -116
-60 -38 -24 -86 -50 -108 -57 -21 -7 -57 -22 -79 -35 -22 -12 -51 -26 -65 -30
-14 -4 -41 -18 -61 -31 -41 -26 -253 -114 -274 -114 -73 0 -532 -193 -627
-263 -28 -20 -28 -22 -28 -121 0 -56 3 -111 6 -123 l6 -22 849 -1 c467 0 849
3 849 6 0 3 -21 25 -47 49 -27 24 -45 46 -42 49 4 4 15 -1 25 -11 9 -10 20
-18 23 -19 18 -2 61 -29 61 -37 0 -6 3 -7 6 -4 4 4 1 13 -6 22 -11 13 -10 14
4 9 14 -6 21 5 17 28 0 5 4 8 10 8 6 0 9 -7 5 -15 -3 -8 -1 -15 5 -15 6 0 13
9 16 20 6 24 4 23 37 7 14 -8 23 -17 19 -21 -4 -4 1 -4 10 0 10 4 16 12 13 19
-2 7 0 17 6 23 8 8 5 14 -13 21 -22 9 -20 10 16 12 39 1 39 2 10 9 -16 4 -25
8 -18 9 6 0 15 18 20 38 4 20 15 38 23 40 13 4 13 3 0 -7 -12 -10 -11 -11 9
-6 14 3 30 -1 39 -11 15 -14 14 -15 -6 -9 -29 9 -29 -12 -2 -42 23 -24 19 -28
-11 -12 -10 6 -19 18 -20 28 0 10 -3 12 -6 5 -2 -7 5 -26 16 -42 24 -33 27
-57 9 -64 -10 -4 -10 -7 -1 -18 11 -10 17 -9 36 9 26 24 53 29 60 10 2 -7 7
-10 11 -7 10 10 -5 39 -20 39 -19 0 -18 34 1 50 13 10 15 9 15 -8 0 -25 44
-72 67 -72 9 0 13 -3 10 -7 -4 -3 2 -12 13 -20 11 -8 20 -21 20 -28 0 -8 10
-15 23 -15 12 -1 59 -4 105 -6 46 -3 91 -2 100 2 9 4 20 8 24 8 21 3 14 14
-13 20 -35 7 -36 33 -1 28 15 -2 20 1 17 10 -3 8 7 19 26 27 21 9 27 16 19 21
-14 9 -5 30 13 30 7 1 23 10 36 20 18 15 21 23 12 33 -6 8 -7 17 -3 21 4 5
-11 -2 -33 -15 -45 -26 -165 -34 -173 -11 -2 7 -10 12 -18 12 -8 0 -14 5 -14
11 0 6 -7 9 -15 5 -9 -3 -15 0 -15 9 0 8 -8 15 -18 15 -10 0 -25 11 -32 25 -7
14 -16 25 -20 25 -3 0 -7 11 -8 26 -1 14 2 23 8 19 6 -3 10 -1 10 5 0 6 7 18
15 26 13 13 18 13 44 -1 28 -14 31 -14 40 3 7 11 10 13 11 3 0 -9 4 -10 13 -4
6 6 28 16 48 22 21 7 42 22 50 37 16 32 99 85 155 102 46 14 90 57 90 90 0 12
-4 22 -8 22 -4 0 -8 -5 -8 -10 0 -6 -11 -15 -24 -21 -15 -7 -22 -17 -19 -26 7
-19 -21 -39 -84 -59 -28 -9 -54 -23 -57 -30 -3 -8 -13 -14 -22 -14 -10 0 -25
-7 -34 -15 -14 -13 -23 -13 -46 -5 -39 15 -64 39 -57 56 3 8 -1 14 -11 14 -9
0 -16 6 -16 14 0 7 -15 17 -32 21 -19 4 -27 9 -19 12 10 4 8 10 -10 24 l-24
18 25 -5 c24 -5 24 -5 6 10 -17 14 -17 16 -3 16 11 0 14 5 10 17 -5 13 -2 15
15 11 11 -3 22 -2 24 2 2 4 29 10 61 14 31 3 68 13 82 22 13 9 29 13 34 9 6
-3 8 0 5 8 -4 12 3 14 31 12 26 -1 35 2 31 11 -3 8 0 11 9 8 18 -7 95 33 95
50 0 16 53 40 72 33 7 -3 3 -6 -8 -6 -27 -1 -46 -23 -38 -44 3 -8 0 -18 -6
-22 -24 -15 12 -23 39 -9 14 8 32 14 39 14 6 0 12 7 12 16 0 14 -1 14 -16 0
-18 -18 -34 -21 -34 -6 0 6 4 10 9 10 5 0 11 10 14 21 4 15 11 20 22 15 10 -3
14 -2 9 5 -3 6 3 17 15 25 22 16 30 41 9 28 -7 -5 -2 5 11 21 12 17 32 30 44
30 25 0 49 56 27 63 -7 3 1 11 19 18 18 7 36 25 42 41 6 15 15 36 20 45 12 24
11 41 -2 32 -8 -4 -9 1 -4 17 7 21 6 22 -9 10 -14 -12 -19 -11 -31 5 -8 10
-15 22 -15 25 0 9 -60 4 -60 -5 0 -3 0 -10 0 -16 0 -5 7 -6 17 -3 11 5 14 3 8
-6 -4 -8 -20 -11 -36 -9 -23 4 -26 2 -18 -9 11 -12 5 -17 -13 -14 -5 0 -8 -3
-8 -9 0 -5 -7 -10 -16 -10 -13 0 -11 -5 6 -27 19 -24 20 -28 6 -31 -12 -3 -14
-10 -10 -28 8 -30 -2 -31 -27 -2 -20 23 -20 23 -10 1 14 -28 14 -86 1 -78 -6
4 -8 15 -5 24 6 19 -18 23 -43 7 -21 -13 -14 -28 8 -16 23 12 26 5 6 -15 -12
-12 -16 -12 -26 0 -10 12 -10 18 0 30 7 9 14 28 16 43 2 24 1 25 -10 10 -8
-12 -16 -14 -23 -7 -5 5 -17 7 -26 3 -12 -4 -14 -11 -7 -29 7 -19 6 -23 -5
-18 -9 3 -15 -1 -15 -10 0 -8 -10 -17 -22 -21 -20 -5 -21 -8 -8 -17 12 -9 12
-10 -4 -5 -13 5 -17 2 -12 -9 3 -9 0 -15 -9 -15 -17 0 -20 16 -5 25 6 3 10 15
10 26 0 11 -4 18 -9 14 -5 -3 -12 -1 -16 5 -4 6 -10 8 -15 5 -4 -3 -6 4 -3 15
3 11 0 20 -6 20 -6 0 -10 -3 -10 -7 4 -26 -3 -76 -9 -67 -4 6 -16 14 -28 18
-11 3 -25 18 -32 34 -11 27 -11 26 -9 -10 3 -43 -2 -47 -28 -18 -10 11 -21 18
-23 15 -3 -3 5 -16 18 -30 23 -25 23 -25 4 -39 -17 -13 -20 -12 -28 7 -5 12
-8 29 -7 37 2 13 0 13 -8 1 -5 -8 -7 -21 -3 -29 3 -10 1 -13 -6 -8 -7 4 -12
18 -12 31 0 13 -4 27 -10 30 -5 3 -10 -3 -10 -15 0 -13 -5 -20 -12 -17 -7 2
-12 12 -12 21 1 9 -5 16 -13 16 -12 0 -12 2 1 16 16 15 21 34 10 34 -3 0 -12
-6 -20 -14 -8 -8 -26 -13 -42 -11 -15 2 -31 4 -35 4 -5 1 -5 11 -2 22 5 16 4
19 -5 14 -7 -4 -16 -1 -21 6 -11 18 -11 32 0 25 5 -4 11 -1 13 6 5 15 -15 38
-34 39 -7 0 -3 5 10 11 25 13 29 33 8 41 -11 4 -13 1 -9 -11 7 -18 5 -17 -17
12 -10 13 -10 17 -2 12 7 -4 12 -2 12 8 0 20 -17 30 -23 14 -4 -10 -8 -9 -16
2 -16 22 -13 33 5 26 11 -4 15 -2 11 8 -3 8 0 13 6 12 7 -2 30 -6 52 -11 22
-4 43 -13 47 -18 4 -7 12 -6 24 4 16 13 17 12 12 -8 -5 -19 -3 -21 12 -13 10
6 26 7 34 4 9 -3 16 -1 16 6 0 6 -4 8 -10 5 -6 -3 -10 -2 -10 4 0 14 18 23 22
11 1 -5 15 -11 29 -12 17 -1 25 -7 22 -15 -6 -16 -23 -17 -23 -3 0 6 -6 5 -14
-2 -8 -7 -12 -15 -10 -17 8 -9 44 -8 44 1 0 5 5 6 10 3 6 -3 10 1 10 9 0 8 4
17 9 20 5 4 7 -3 4 -14 -3 -11 0 -20 6 -20 6 0 11 5 11 10 0 6 7 10 16 10 8 0
12 5 8 11 -4 8 0 9 15 4 12 -3 21 -2 21 4 0 8 -17 54 -26 69 -1 1 -13 -2 -27
-7 -29 -11 -42 -4 -26 16 8 9 8 13 1 13 -6 0 -15 -6 -19 -12 -12 -20 -53 -40
-53 -27 0 6 9 13 20 16 11 3 20 10 20 15 0 5 -4 7 -9 4 -16 -10 -41 5 -41 25
0 10 -3 19 -7 19 -5 0 -18 8 -31 18 -34 26 -20 49 31 51 23 0 66 7 94 15 30 8
55 10 58 5 3 -5 14 -3 25 3 10 7 16 16 13 22 -4 5 1 7 10 3 10 -4 17 -1 17 6
0 7 3 8 8 2 12 -16 32 -16 32 0 0 13 4 14 23 4 12 -7 24 -11 27 -10 2 1 6 -2
8 -8 2 -6 -6 -11 -17 -11 -12 0 -21 -5 -21 -11 0 -7 -8 -18 -17 -25 -10 -7
-15 -15 -12 -18 7 -7 116 68 138 95 16 20 58 18 45 -2 -3 -5 2 -6 10 -3 9 3
14 9 11 14 -2 4 14 4 36 0 35 -7 42 -5 46 10 3 12 11 17 21 13 15 -4 15 -3 2
6 -9 6 -18 7 -24 1 -16 -16 -29 -12 -22 6 4 9 1 23 -6 31 -10 12 -9 15 7 13
11 -1 29 -2 40 -1 19 1 19 1 -1 15 -11 8 -34 18 -50 22 -16 4 -36 12 -44 18
-13 10 -13 9 -1 -7 8 -10 9 -17 3 -17 -6 0 -16 9 -22 20 -6 11 -15 18 -19 15
-5 -2 -14 2 -21 10 -13 15 -35 10 -25 -6 4 -5 2 -9 -3 -9 -5 0 -12 9 -15 20
-8 30 -26 24 -24 -7 1 -16 8 -28 14 -28 6 0 15 -3 19 -8 4 -4 2 -7 -4 -7 -7 0
-12 -5 -12 -11 0 -6 7 -9 15 -5 8 3 15 1 15 -5 0 -6 4 -7 10 -4 6 4 7 -1 3
-11 -4 -11 -3 -15 4 -11 7 5 9 0 6 -12 -3 -13 -12 -18 -26 -16 -32 4 -135 15
-182 19 -21 2 -57 -3 -79 -10 -22 -8 -69 -14 -105 -12 -54 1 -76 -3 -123 -26
-61 -30 -80 -30 -84 -3 -2 14 1 15 18 6 18 -10 19 -9 8 12 -11 20 -10 21 19
17 21 -3 31 0 31 9 0 7 9 13 20 13 11 0 20 4 20 9 0 5 10 12 23 16 20 7 33 10
65 14 6 0 12 7 12 15 0 15 -43 16 -57 3 -11 -12 -20 -8 -30 16 -8 17 -7 28 3
42 12 16 18 17 56 6 48 -14 78 -37 78 -58 0 -10 -6 -12 -20 -8 -14 4 -20 2
-20 -8 0 -11 8 -14 28 -11 15 3 33 5 40 6 15 2 16 -2 -7 51 -17 39 -23 45 -43
40 -22 -6 -22 -5 -7 13 9 10 22 29 28 41 11 22 11 22 -17 6 -27 -16 -31 -15
-73 5 -53 26 -95 88 -85 127 5 18 1 27 -14 35 -11 6 -20 15 -20 21 0 6 4 8 9
4 6 -3 13 11 16 32 3 21 10 52 15 68 6 19 6 44 -1 70 -21 81 -26 160 -14 219
6 28 4 41 -6 47 -12 8 -12 10 0 18 10 7 8 12 -10 26 -16 11 -20 19 -11 22 7 3
19 18 27 33 16 30 20 52 7 35 -12 -17 -73 -35 -71 -22 3 25 -1 38 -11 32 -6
-3 -14 5 -20 19 -5 14 -13 26 -18 26 -5 0 -14 11 -20 25 -8 17 -8 25 -1 25 6
0 7 5 4 10 -3 6 -1 10 5 10 6 0 8 5 5 10 -5 8 -11 8 -20 0 -10 -8 -14 -7 -18
7 -4 16 -6 15 -12 -5 -6 -17 -12 -21 -29 -16 -11 4 -24 12 -28 18 -4 6 -8 7
-8 2 0 -5 -7 -2 -16 5 -22 18 -119 20 -160 3 -21 -9 -34 -10 -34 -4 0 5 -4 10
-9 10 -5 0 -8 -7 -7 -16 0 -9 -5 -18 -12 -20 -7 -1 -8 0 -3 2 12 6 3 34 -11
34 -5 0 -7 -4 -4 -8 2 -4 -3 -8 -13 -8 -10 0 -18 6 -18 13 0 7 5 9 10 6 6 -3
7 -1 3 6 -6 9 -11 9 -21 1 -18 -15 -15 11 4 34 7 8 10 20 6 25 -3 7 0 8 9 5 9
-3 16 -1 16 5 0 6 -4 11 -10 11 -5 0 -10 10 -9 23 0 12 3 16 6 10 6 -16 13
-16 37 2 19 14 19 15 1 35 -21 24 -35 26 -35 5 0 -8 7 -15 15 -15 8 0 15 -5
15 -11 0 -6 -7 -8 -16 -5 -9 3 -18 6 -20 6 -2 0 -4 12 -4 26 0 14 -4 23 -10
19 -5 -3 -10 0 -10 8 0 11 7 13 23 10 21 -5 21 -5 2 10 -10 8 -25 13 -32 10
-14 -5 -17 15 -7 41 9 24 27 19 21 -5 -4 -15 -2 -19 10 -15 8 3 19 6 24 6 5 0
9 7 9 15 0 9 -6 12 -15 9 -23 -9 -19 22 5 39 14 10 18 20 14 32 -5 13 -3 16 7
13 8 -3 13 -9 12 -14 -1 -5 -4 -27 -8 -49 l-6 -40 15 32 c8 17 13 40 11 50 -2
10 -4 23 -4 29 -1 6 -12 9 -25 7 -13 -3 -27 0 -30 6 -5 7 1 10 16 8 18 -1 23
3 22 21 -1 12 3 22 9 22 15 0 57 53 57 73 0 10 11 21 28 27 15 5 40 16 55 25
15 8 25 10 21 4 -8 -13 35 -2 50 12 13 12 29 11 21 -1 -3 -5 6 -12 20 -15 14
-3 37 -7 51 -10 19 -5 30 0 41 15 14 20 70 30 58 9 -4 -6 11 -1 33 10 24 12
52 19 72 16 18 -2 29 -1 26 2 -3 3 6 12 20 20 31 16 37 16 29 3 -3 -5 -1 -10
4 -10 6 0 11 8 11 19 0 10 11 26 25 35 32 21 35 20 35 -5 0 -16 -5 -20 -19
-16 -13 3 -21 -1 -24 -13 -3 -13 0 -16 14 -13 11 3 19 1 19 -5 0 -6 -16 -14
-36 -18 -24 -4 -32 -9 -23 -15 7 -4 29 1 50 12 21 10 45 16 53 13 9 -4 16 -1
16 6 0 9 7 7 20 -5 19 -17 20 -17 26 1 9 30 20 48 31 51 14 5 25 -25 16 -40
-11 -18 -9 -40 4 -55 17 -18 86 -18 113 1 12 8 29 13 37 10 12 -5 10 -9 -8
-19 -24 -13 -24 -13 -2 -14 12 0 25 4 28 10 3 5 17 -2 31 -18 23 -26 25 -26
38 -9 8 10 23 17 33 15 10 -2 23 3 29 11 14 18 30 8 38 -25 4 -14 17 -42 30
-62 12 -20 21 -43 19 -49 -3 -7 0 -13 6 -13 6 0 11 -9 11 -21 0 -12 -4 -17
-11 -13 -8 5 -8 1 0 -13 6 -11 7 -24 3 -28 -4 -3 -2 -6 3 -5 22 5 36 -1 30
-11 -4 -5 0 -18 8 -27 7 -9 17 -26 21 -37 6 -16 5 -18 -5 -7 -18 17 -30 15
-22 -3 3 -9 19 -23 35 -31 18 -9 28 -21 24 -29 -2 -7 2 -19 10 -26 10 -8 11
-14 4 -19 -7 -4 -4 -15 10 -32 11 -15 20 -34 20 -42 0 -9 10 -30 21 -45 17
-23 22 -47 25 -111 4 -86 27 -196 50 -242 21 -41 44 -147 33 -154 -14 -8 -11
-35 5 -48 8 -6 17 -22 21 -36 4 -17 3 -21 -3 -12 -12 17 -34 -63 -27 -98 3
-13 0 -29 -6 -37 -7 -7 -8 -13 -4 -13 4 0 3 -6 -3 -13 -6 -7 -13 -39 -14 -70
-2 -31 -6 -57 -10 -57 -4 0 -7 -8 -6 -17 1 -10 0 -39 0 -65 -2 -43 -4 -46 -27
-43 -28 3 -32 -7 -11 -24 11 -9 15 -9 19 1 2 7 7 10 11 7 8 -8 -20 -151 -40
-204 -11 -27 -17 -92 -21 -218 -6 -205 -16 -194 97 -110 130 97 234 268 271
445 20 99 37 378 20 343 -5 -11 -10 -32 -10 -46 -1 -14 -16 -50 -33 -80 -18
-30 -39 -66 -45 -82 -15 -33 -48 -47 -111 -47 -55 1 -86 19 -75 45 4 13 3 16
-5 11 -18 -11 -14 10 5 29 14 14 14 18 2 26 -10 6 -11 9 -1 9 17 0 35 49 23
64 -18 22 -11 186 8 186 4 0 15 20 25 45 13 31 22 42 30 36 18 -15 31 0 34 39
9 114 15 150 23 150 5 0 9 6 9 13 0 19 52 86 68 87 23 0 23 25 1 106 -24 90
-106 312 -122 333 -14 16 -25 34 -58 97 -15 27 -36 58 -48 68 -12 11 -21 22
-21 26 0 9 -210 216 -260 257 -74 60 -85 70 -139 121 -31 30 -62 57 -70 62
-12 6 -13 11 -3 23 10 12 7 18 -23 36 -40 24 -45 25 -45 12 0 -5 14 -14 30
-21 30 -13 41 -30 18 -30 -33 0 -88 22 -88 35 0 9 -6 12 -15 9 -8 -4 -15 -1
-15 6 0 6 -4 8 -10 5 -6 -3 -7 1 -4 10 4 9 13 14 20 11 8 -3 13 -2 11 2 -1 4
3 7 8 7 6 0 9 -5 7 -11 -3 -16 15 -27 23 -14 3 5 2 10 -2 10 -5 0 -9 9 -9 20
0 11 4 20 8 20 4 0 8 -9 8 -20 0 -11 4 -20 10 -20 13 0 7 57 -7 71 -7 7 -8 22
-3 39 6 22 5 27 -5 24 -7 -3 -16 0 -21 7 -4 8 -3 10 5 5 8 -6 11 3 9 29 -1 20
-6 39 -10 41 -4 3 -8 14 -8 25 0 10 -5 19 -10 19 -6 0 -9 3 -9 8 3 18 -2 32
-12 32 -6 0 -7 -5 -2 -12 8 -14 10 -22 17 -85 l5 -43 -30 16 c-32 16 -49 48
-49 92 0 35 -24 73 -97 150 -74 79 -134 103 -259 103 -50 0 -82 4 -79 10 4 5
-2 8 -12 8 -10 -1 -56 -5 -103 -9z m205 -130 c0 -7 -5 -15 -12 -17 -7 -3 -11
4 -10 16 1 23 22 23 22 1z m344 -214 c-2 -3 -52 -6 -109 -7 -148 -2 -321 -17
-419 -35 -46 -8 -85 -13 -87 -11 -10 10 206 44 311 50 109 6 309 8 304 3z
m-209 -20 c0 -2 -7 -7 -16 -10 -8 -3 -12 -2 -9 4 6 10 25 14 25 6z m120 0 c0
-2 -9 -6 -20 -9 -11 -3 -18 -1 -14 4 5 9 34 13 34 5z m107 -2 c-3 -3 -12 -4
-19 -1 -8 3 -5 6 6 6 11 1 17 -2 13 -5z m-329 -21 c2 -7 -1 -13 -8 -13 -6 0
-8 5 -4 12 5 8 0 9 -14 6 -13 -4 -20 -2 -16 3 8 13 36 7 42 -8z m-120 -11 c2
-7 -1 -12 -8 -12 -6 0 -9 4 -6 9 4 5 1 12 -4 14 -6 3 -5 4 2 3 6 -1 14 -8 16
-14z m468 -6 c17 5 17 4 2 -5 -18 -12 -48 -5 -48 11 0 7 5 6 14 -1 7 -6 22 -9
32 -5z m-1072 -12 c17 -17 21 -44 7 -44 -5 0 -14 14 -20 30 -11 34 -9 37 13
14z m399 9 c-7 -2 -19 -2 -25 0 -7 3 -2 5 12 5 14 0 19 -2 13 -5z m92 -2 c3
-5 0 -13 -6 -17 -8 -5 -9 -3 -4 6 6 10 4 12 -9 7 -10 -4 -15 -3 -11 3 8 13 22
13 30 1z m265 -1 c0 -5 -8 -10 -17 -10 -15 0 -16 2 -3 10 19 12 20 12 20 0z
m65 -8 c-3 -3 -11 0 -18 7 -9 10 -8 11 6 5 10 -3 15 -9 12 -12z m45 10 c0 -5
-7 -9 -15 -9 -8 0 -12 4 -9 9 3 4 9 8 15 8 5 0 9 -4 9 -8z m108 -4 c-16 -10
-58 -10 -58 0 0 4 16 7 35 8 22 0 31 -3 23 -8z m-828 -13 c0 -2 -9 -3 -19 -2
-11 0 -18 5 -15 9 4 6 34 0 34 -7z m211 0 c0 -5 -5 -11 -13 -13 -10 -3 -10 -1
1 6 11 8 10 11 -5 15 -16 5 -16 6 -1 4 10 -1 18 -6 18 -12z m279 5 c0 -5 -5
-10 -11 -10 -5 0 -7 5 -4 10 3 6 8 10 11 10 2 0 4 -4 4 -10z m-345 -10 c-27
-12 -43 -12 -25 0 8 5 22 9 30 9 10 0 8 -3 -5 -9z m421 -9 c-4 -5 -1 -12 4
-14 6 -3 5 -4 -2 -3 -15 3 -23 26 -8 26 6 0 9 -4 6 -9z m111 3 c-3 -3 -12 -4
-19 -1 -8 3 -5 6 6 6 11 1 17 -2 13 -5z m113 2 c0 -2 -7 -7 -16 -10 -8 -3 -12
-2 -9 4 6 10 25 14 25 6z m120 -6 c0 -5 -7 -7 -15 -4 -8 4 -15 8 -15 10 0 2 7
4 15 4 8 0 15 -4 15 -10z m-904 -37 c-3 -4 -6 -1 -6 5 0 7 -7 9 -17 5 -16 -6
-16 -5 -4 11 13 16 15 16 24 1 5 -9 6 -19 3 -22z m234 33 c0 -3 -4 -8 -10 -11
-5 -3 -10 -1 -10 4 0 6 5 11 10 11 6 0 10 -2 10 -4z m750 -10 c0 -13 -57 -43
-72 -38 -5 1 -8 -2 -8 -8 0 -5 -5 -10 -11 -10 -6 0 -9 7 -5 15 3 9 0 15 -10
15 -8 0 -13 4 -9 10 3 6 15 5 30 -2 27 -12 75 2 75 22 0 5 2 10 5 10 3 0 5 -6
5 -14z m-1057 -7 c-6 -6 -9 -19 -6 -28 8 -21 -1 -12 -16 17 -10 20 -9 22 11
22 16 0 19 -3 11 -11z m527 1 c0 -5 -5 -10 -11 -10 -5 0 -7 5 -4 10 3 6 8 10
11 10 2 0 4 -4 4 -10z m195 0 c3 -5 1 -10 -4 -10 -6 0 -11 5 -11 10 0 6 2 10
4 10 3 0 8 -4 11 -10z m42 4 c-3 -3 -12 -4 -19 -1 -8 3 -5 6 6 6 11 1 17 -2
13 -5z m-137 -20 c0 -2 -7 -4 -15 -4 -8 0 -15 4 -15 10 0 5 7 7 15 4 8 -4 15
-8 15 -10z m50 6 c0 -5 -7 -10 -16 -10 -8 0 -12 5 -9 10 3 6 10 10 16 10 5 0
9 -4 9 -10z m190 -20 c0 -14 -28 -1 -34 16 -4 12 -2 12 14 4 11 -6 20 -15 20
-20z m-310 16 c0 -3 -4 -8 -10 -11 -5 -3 -10 -1 -10 4 0 6 5 11 10 11 6 0 10
-2 10 -4z m350 0 c0 -3 -4 -8 -10 -11 -5 -3 -10 -1 -10 4 0 6 5 11 10 11 6 0
10 -2 10 -4z m-600 -30 c0 -3 -4 -8 -10 -11 -5 -3 -10 -1 -10 4 0 6 5 11 10
11 6 0 10 -2 10 -4z m-97 -33 c-7 -2 -19 -2 -25 0 -7 3 -2 5 12 5 14 0 19 -2
13 -5z m-188 -63 c4 -6 11 -7 17 -4 7 4 8 2 4 -5 -6 -9 -12 -9 -24 1 -10 7
-19 14 -21 15 -2 2 1 3 7 3 6 0 14 -5 17 -10z m-11 -34 c-1 -9 2 -16 7 -16 5
0 9 5 9 10 0 6 5 10 10 10 17 0 10 -14 -16 -33 -13 -10 -24 -15 -23 -10 1 4 0
10 -1 13 -7 19 -5 50 4 47 6 -2 10 -12 10 -21z m981 -16 c-3 -5 -11 -10 -16
-10 -6 0 -7 5 -4 10 3 6 11 10 16 10 6 0 7 -4 4 -10z m-1085 -8 c0 -5 -7 -9
-15 -9 -8 0 -15 4 -15 9 0 4 7 8 15 8 8 0 15 -4 15 -8z m65 -32 c3 -5 2 -10
-4 -10 -5 0 -17 -3 -27 -7 -16 -6 -17 -5 -4 10 17 19 26 21 35 7z m708 -15
c-3 -9 -8 -14 -10 -11 -3 3 -2 9 2 15 9 16 15 13 8 -4z m-796 -1 c-3 -3 -12
-4 -19 -1 -8 3 -5 6 6 6 11 1 17 -2 13 -5z m-257 -14 c0 -5 -4 -10 -10 -10 -5
0 -10 5 -10 10 0 6 5 10 10 10 6 0 10 -4 10 -10z m1117 -25 c-12 -25 -37 -42
-37 -25 0 8 39 50 46 50 1 0 -3 -11 -9 -25z m-823 -13 c-9 -16 -26 -35 -37
-42 -21 -13 -21 -13 -2 16 25 38 38 53 48 54 5 0 1 -13 -9 -28z m-44 -6 c0 -3
-4 -8 -10 -11 -5 -3 -10 -1 -10 4 0 6 5 11 10 11 6 0 10 -2 10 -4z m675 -16
c-3 -5 -14 -10 -23 -9 -14 0 -13 2 3 9 27 11 27 11 20 0z m155 -20 c0 -5 -4
-10 -10 -10 -5 0 -10 5 -10 10 0 6 5 10 10 10 6 0 10 -4 10 -10z m-830 -26 c0
-3 -6 -12 -14 -20 -13 -12 -15 -12 -13 6 1 17 27 31 27 14z m635 -4 c-28 -12
-37 -12 -30 0 3 6 16 10 28 9 21 0 21 -1 2 -9z m565 -5 c-7 -9 -15 -13 -19
-10 -3 3 1 10 9 15 21 14 24 12 10 -5z m-750 -1 c0 -8 -19 -13 -24 -6 -3 5 1
9 9 9 8 0 15 -2 15 -3z m-45 -14 c3 -5 1 -10 -4 -10 -6 0 -11 5 -11 10 0 6 2
10 4 10 3 0 8 -4 11 -10z m933 -18 c2 -7 -2 -10 -12 -6 -9 3 -16 11 -16 16 0
13 23 5 28 -10z m-973 -12 c-3 -5 -11 -10 -16 -10 -6 0 -7 5 -4 10 3 6 11 10
16 10 6 0 7 -4 4 -10z m-425 -30 c-6 -11 -13 -20 -16 -20 -2 0 0 9 6 20 6 11
13 20 16 20 2 0 0 -9 -6 -20z m420 -4 c0 -3 -4 -8 -10 -11 -5 -3 -10 -1 -10 4
0 6 5 11 10 11 6 0 10 -2 10 -4z m-457 -66 c-9 -17 -28 -43 -41 -58 l-23 -27
19 35 c27 53 46 80 55 80 4 0 0 -14 -10 -30z m143 -121 c-9 -19 -15 -26 -16
-16 0 17 21 59 27 53 2 -2 -3 -18 -11 -37z m198 -157 c6 -10 -30 -9 -40 1 -4
4 2 7 14 7 11 0 23 -4 26 -8z m-4 -32 c0 -5 -2 -10 -4 -10 -3 0 -8 5 -11 10
-3 6 -1 10 4 10 6 0 11 -4 11 -10z m160 -130 c0 -5 -5 -10 -11 -10 -5 0 -7 5
-4 10 3 6 8 10 11 10 2 0 4 -4 4 -10z m-184 -95 c-11 -8 -25 -15 -30 -15 -6 1
0 7 14 15 32 19 40 18 16 0z m81 -11 c-3 -3 -12 -4 -19 -1 -8 3 -5 6 6 6 11 1
17 -2 13 -5z m211 -68 c48 -26 116 -103 118 -136 1 -16 0 -30 -3 -30 -7 0
-123 72 -123 76 0 2 6 1 13 -2 8 -3 14 2 14 12 0 17 -60 48 -80 41 -7 -2 7
-10 31 -16 23 -6 42 -14 42 -18 0 -3 -10 -3 -22 0 -12 4 -28 2 -34 -4 -16 -13
-104 -20 -104 -8 0 5 -8 6 -17 4 -10 -3 -3 2 15 10 17 8 32 18 32 21 0 3 -4 2
-10 -1 -5 -3 -10 -1 -10 4 0 13 -61 7 -91 -9 -11 -7 -23 -10 -25 -7 -7 7 74
40 84 33 5 -3 15 1 22 9 7 8 9 15 4 16 -5 0 0 4 11 9 32 14 103 11 133 -4z
m-328 -10 c0 -3 -4 -8 -10 -11 -5 -3 -10 -1 -10 4 0 6 5 11 10 11 6 0 10 -2
10 -4z m37 -12 c-3 -3 -12 -4 -19 -1 -8 3 -5 6 6 6 11 1 17 -2 13 -5z m-67
-48 c0 -2 -7 -6 -15 -10 -8 -3 -15 -1 -15 4 0 6 7 10 15 10 8 0 15 -2 15 -4z
m30 -52 c0 -2 -9 -8 -20 -14 -15 -8 -18 -8 -14 3 4 11 34 21 34 11z m234 -35
c-3 -5 -10 -7 -15 -3 -5 3 -7 10 -3 15 3 5 10 7 15 3 5 -3 7 -10 3 -15z m118
3 c31 -14 35 -19 25 -32 -13 -17 -110 -60 -134 -60 -10 0 -3 11 16 29 19 18
31 39 31 55 0 30 11 32 62 8z m-227 -32 c7 -22 49 -55 80 -63 11 -2 0 -5 -23
-6 -46 -1 -112 24 -112 42 0 13 30 47 41 47 4 0 10 -9 14 -20z m285 0 c0 -5
-5 -10 -11 -10 -5 0 -7 5 -4 10 3 6 8 10 11 10 2 0 4 -4 4 -10z m-4 -43 c8 3
14 0 14 -6 0 -6 -7 -11 -15 -11 -9 0 -18 -7 -21 -15 -4 -8 -10 -15 -15 -15 -4
0 -5 8 -2 18 6 15 4 15 -9 4 -9 -7 -23 -12 -32 -10 -8 2 -14 -1 -13 -7 1 -5
11 -9 22 -8 20 3 20 3 1 -12 -15 -11 -22 -12 -27 -3 -6 9 -16 8 -44 -5 -20 -9
-42 -17 -50 -17 -23 0 -18 18 8 26 12 4 25 12 29 18 9 14 132 55 136 45 2 -4
10 -5 18 -2z m-566 -45 c0 -6 -28 -32 -34 -32 -3 0 -6 8 -6 18 0 11 7 18 20
18 11 0 20 -2 20 -4z m315 -32 c-3 -5 -12 -10 -18 -10 -7 0 -6 4 3 10 19 12
23 12 15 0z m-245 -15 c0 -8 -2 -15 -4 -15 -2 0 -6 7 -10 15 -3 8 -1 15 4 15
6 0 10 -7 10 -15z m526 -79 c4 -27 3 -37 -4 -32 -6 3 -13 2 -16 -3 -4 -5 -1
-13 5 -16 6 -4 8 -18 5 -31 -4 -13 -2 -24 4 -24 16 0 22 -45 11 -86 -14 -53
-22 -146 -11 -139 4 3 10 0 12 -5 2 -6 10 -12 19 -13 9 -2 28 -10 42 -20 15
-9 30 -17 35 -17 5 0 2 -15 -7 -34 -9 -18 -19 -32 -24 -29 -4 2 -5 9 -2 14 12
18 -11 9 -29 -12 -10 -12 -21 -18 -25 -13 -13 19 -39 13 -57 -12 -30 -40 -47
-58 -71 -71 -19 -11 -21 -10 -17 2 5 11 2 13 -9 9 -13 -5 -15 0 -10 30 7 45 0
45 -74 6 -31 -17 -58 -28 -61 -25 -3 3 0 5 6 5 7 0 12 7 12 16 0 8 -5 12 -10
9 -20 -12 -51 6 -48 28 2 12 -7 32 -20 46 -13 14 -21 33 -19 43 3 10 1 16 -3
13 -5 -3 -14 5 -21 17 -9 19 -9 21 2 11 15 -15 33 -17 25 -4 -3 5 1 12 9 15
12 4 13 11 7 23 -5 10 -7 23 -5 30 2 6 -5 17 -17 23 -11 6 -20 16 -19 23 1 7
-3 25 -9 40 -7 16 -12 34 -12 42 0 16 -18 30 -28 21 -3 -4 -1 -16 6 -26 16
-26 15 -31 -4 -28 -10 2 -19 -3 -22 -11 -3 -8 0 -11 7 -7 6 4 11 2 11 -4 0
-18 -22 -6 -39 21 -15 22 -15 23 1 11 20 -16 37 3 19 21 -6 6 -11 8 -11 3 0
-4 -7 0 -16 9 -13 13 -19 13 -33 3 -14 -10 -14 -9 1 7 14 15 20 16 32 5 13
-10 16 -10 16 4 0 9 -4 16 -10 16 -5 0 -10 11 -10 25 0 14 5 25 11 25 6 0 9
12 7 28 -3 23 0 27 20 24 13 -2 31 3 41 12 10 9 29 14 49 11 18 -2 32 0 32 4
0 5 21 11 48 15 26 3 60 13 76 21 39 21 58 18 21 -2 -16 -10 -33 -16 -37 -15
-5 1 -8 -2 -8 -8 0 -5 -10 -10 -22 -10 -12 0 -19 -2 -16 -5 3 -3 31 -2 61 3
38 6 60 5 68 -2 9 -8 10 -8 6 0 -6 11 19 29 36 26 4 -1 7 3 7 9 0 5 5 7 10 4
6 -3 10 -1 10 4 0 6 5 11 10 11 6 0 10 -7 10 -15 0 -8 5 -15 11 -15 6 0 8 10
5 23 -4 13 0 10 8 -8 8 -17 18 -48 22 -69z m-622 21 c-4 -12 -9 -31 -11 -42
-16 -90 -16 -92 -23 -65 -4 14 -2 31 4 39 8 11 8 13 -1 7 -12 -7 -19 14 -13
39 3 9 7 39 9 58 1 4 10 3 21 -3 16 -8 19 -17 14 -33z m776 -126 c0 -6 -4 -13
-10 -16 -5 -3 -10 1 -10 9 0 9 5 16 10 16 6 0 10 -4 10 -9z m-9 -94 c-10 -9
-11 -8 -5 6 3 10 9 15 12 12 3 -3 0 -11 -7 -18z m-61 -59 c0 -4 -6 -5 -14 -2
-8 3 -12 12 -9 21 5 12 7 12 14 1 5 -7 9 -16 9 -20z m-884 -12 c10 -27 11 -51
2 -57 -5 -3 -4 -18 2 -35 7 -19 8 -30 1 -32 -11 -4 -3 -34 13 -44 6 -4 7 -10
4 -14 -20 -19 -70 128 -53 156 3 5 1 10 -6 10 -8 0 -8 4 1 15 16 19 29 19 36
1z m899 -46 c3 -5 -1 -10 -9 -10 -8 0 -18 5 -21 10 -3 6 1 10 9 10 8 0 18 -4
21 -10z m-475 -60 c0 -5 -2 -10 -4 -10 -3 0 -8 5 -11 10 -3 6 -1 10 4 10 6 0
11 -4 11 -10z m5 -39 c3 -5 1 -12 -5 -16 -5 -3 -10 1 -10 9 0 18 6 21 15 7z
m-353 -46 c4 -20 3 -23 -8 -14 -16 13 -19 39 -5 39 5 0 11 -11 13 -25z m48 4
c-13 -23 -33 -21 -38 4 -3 12 4 17 23 17 23 0 25 -2 15 -21z m1448 -60 c20
-32 -9 -22 -36 13 -11 14 -11 16 5 12 11 -3 24 -14 31 -25z m-1508 -52 c0 -6
10 -21 22 -34 20 -22 16 -32 -7 -15 -11 7 -45 58 -45 66 0 3 7 3 15 0 8 -4 15
-11 15 -17z m237 1 c-3 -8 -6 -5 -6 6 -1 11 2 17 5 13 3 -3 4 -12 1 -19z m963
3 c0 -11 -59 -26 -67 -18 -3 3 -2 10 2 16 8 13 65 15 65 2z m-175 -31 c3 -6
-1 -7 -9 -4 -9 3 -16 1 -16 -5 0 -6 -4 -11 -10 -11 -5 0 -10 7 -10 15 0 17 35
21 45 5z m-958 -6 c-3 -3 -12 -4 -19 -1 -8 3 -5 6 6 6 11 1 17 -2 13 -5z m563
-14 c-6 -11 -19 -24 -30 -30 -17 -9 -20 -8 -20 10 0 16 4 20 19 15 12 -3 21 0
25 10 3 8 8 15 11 15 3 0 1 -9 -5 -20z m59 -72 c-3 -18 21 -78 31 -78 4 0 11
-16 14 -35 4 -20 11 -33 15 -30 5 2 9 -6 9 -19 0 -17 -5 -22 -18 -19 -10 3
-17 10 -17 16 1 33 -4 48 -15 45 -7 -1 -23 3 -36 10 -20 12 -23 10 -32 -13
-12 -31 -26 -26 -33 12 -3 18 1 34 11 46 9 10 12 18 7 17 -25 -5 -24 2 4 26
17 14 35 23 41 19 5 -3 10 -1 10 4 0 6 2 11 5 11 3 0 5 -6 4 -12z m236 -72
c40 -22 75 -48 75 -57 0 -14 -28 -11 -33 4 -4 9 -8 9 -15 -2 -7 -9 -12 -10
-16 -2 -4 6 -16 11 -27 11 -11 0 -31 11 -44 24 -13 13 -27 21 -31 17 -4 -3 -4
0 0 7 4 7 12 10 17 7 5 -4 9 -2 9 3 0 11 33 5 65 -12z m85 -18 c0 -16 -3 -19
-11 -11 -6 6 -8 16 -5 22 11 17 16 13 16 -11z m-330 -63 c0 -9 -6 -12 -15 -9
-8 4 -12 10 -9 15 8 14 24 10 24 -6z m-324 -107 c3 -59 2 -60 -6 -18 -10 54
-12 96 -4 87 3 -3 8 -34 10 -69z m1244 12 c0 -11 -5 -20 -11 -20 -8 0 -8 -5 1
-15 8 -9 8 -15 2 -15 -14 0 -19 19 -14 47 5 28 22 30 22 3z m-698 -203 c-3
-13 -7 -15 -12 -7 -5 8 -13 9 -21 4 -11 -6 -12 -5 -2 7 18 22 41 20 35 -4z
m31 8 c-3 -9 -8 -14 -10 -11 -3 3 -2 9 2 15 9 16 15 13 8 -4z m288 -38 c-8 -8
-11 -7 -11 4 0 20 13 34 18 19 3 -7 -1 -17 -7 -23z m-291 -7 c0 -5 -2 -10 -4
-10 -3 0 -8 5 -11 10 -3 6 -1 10 4 10 6 0 11 -4 11 -10z m440 6 c0 -2 -7 -9
-15 -16 -13 -11 -14 -10 -9 4 5 14 24 23 24 12z m-450 -36 c0 -4 -7 -11 -16
-14 -8 -3 -12 -2 -9 4 3 6 2 10 -4 10 -6 0 -8 7 -5 15 5 12 10 13 20 4 8 -6
14 -15 14 -19z m220 20 c0 -5 -4 -10 -10 -10 -5 0 -10 5 -10 10 0 6 5 10 10
10 6 0 10 -4 10 -10z m60 -21 c0 -11 -27 -12 -34 -1 -2 4 4 9 15 9 10 1 19 -2
19 -8z m-215 -11 c5 4 5 1 1 -5 -10 -18 -33 -16 -33 2 0 10 4 12 12 5 7 -5 16
-6 20 -2z m-45 -8 c0 -5 -5 -10 -11 -10 -5 0 -7 5 -4 10 3 6 8 10 11 10 2 0 4
-4 4 -10z m490 -64 c0 -2 -9 -6 -20 -9 -11 -3 -20 -1 -20 4 0 5 9 9 20 9 11 0
20 -2 20 -4z m-110 -21 c0 -2 -9 -9 -20 -15 -12 -6 -20 -7 -20 -1 0 5 8 12 18
14 9 3 18 5 20 6 1 0 2 -1 2 -4z m-1171 -305 c1 -20 -1 -22 -9 -10 -5 8 -9 29
-9 45 0 26 2 27 9 10 5 -11 9 -31 9 -45z m531 -63 c0 -5 -8 -3 -17 4 -25 19
-33 32 -26 42 5 9 43 -30 43 -46z m20 23 c0 -5 -4 -10 -10 -10 -5 0 -10 5 -10
10 0 6 5 10 10 10 6 0 10 -4 10 -10z m-67 -37 c7 3 21 -1 32 -9 10 -8 25 -14
32 -14 22 0 63 -42 63 -64 0 -12 -4 -16 -8 -11 -9 12 -74 16 -66 4 3 -5 11 -9
18 -9 8 0 19 -7 26 -15 9 -10 9 -15 1 -15 -16 0 -13 -26 5 -45 29 -28 10 -25
-26 6 -26 21 -30 29 -17 29 19 0 23 15 6 26 -6 3 -15 0 -20 -7 -7 -12 -9 -11
-10 1 -2 22 -2 23 6 48 5 19 3 22 -19 22 -18 0 -24 -4 -20 -15 7 -16 3 -18
-20 -9 -11 4 -13 14 -9 35 5 25 2 29 -16 29 -11 0 -21 4 -21 9 0 14 24 19 37
9 7 -6 19 -8 26 -5z m87 13 c0 -3 -4 -8 -10 -11 -5 -3 -10 -1 -10 4 0 6 5 11
10 11 6 0 10 -2 10 -4z m-80 -220 c0 -3 -4 -8 -10 -11 -5 -3 -10 -1 -10 4 0 6
5 11 10 11 6 0 10 -2 10 -4z m110 -96 c0 -5 -4 -10 -10 -10 -5 0 -10 5 -10 10
0 6 5 10 10 10 6 0 10 -4 10 -10z m335 -60 c0 -8 5 -18 10 -22 6 -4 2 -8 -7
-8 -10 0 -18 7 -18 15 0 7 -8 19 -17 25 -16 9 -15 10 7 8 14 -2 25 -9 25 -18z"/>
<path d="M1815 2500 c27 -12 43 -12 25 0 -8 5 -22 9 -30 9 -10 0 -8 -3 5 -9z"/>
<path d="M1906 2408 c3 -5 10 -6 15 -3 13 9 11 12 -6 12 -8 0 -12 -4 -9 -9z"/>
<path d="M1946 2385 c10 -8 24 -14 29 -14 6 0 1 6 -9 14 -11 8 -24 15 -30 15
-5 0 -1 -7 10 -15z"/>
<path d="M1600 1930 c0 -6 7 -10 15 -10 8 0 15 2 15 4 0 2 -7 6 -15 10 -8 3
-15 1 -15 -4z"/>
<path d="M1600 1888 c0 -4 4 -8 9 -8 6 0 12 4 15 8 3 5 -1 9 -9 9 -8 0 -15 -4
-15 -9z"/>
<path d="M1650 1800 c0 -5 5 -10 10 -10 6 0 10 5 10 10 0 6 -4 10 -10 10 -5 0
-10 -4 -10 -10z"/>
<path d="M1635 1770 c-3 -5 -1 -10 4 -10 6 0 11 5 11 10 0 6 -2 10 -4 10 -3 0
-8 -4 -11 -10z"/>
<path d="M1874 1625 c-16 -12 -16 -14 -3 -15 9 0 22 7 29 15 16 19 0 19 -26 0z"/>
<path d="M1321 2104 c0 -11 3 -14 6 -6 3 7 2 16 -1 19 -3 4 -6 -2 -5 -13z"/>
<path d="M1870 1346 c0 -8 -3 -23 -6 -33 -3 -10 2 -7 10 7 18 30 20 40 6 40
-5 0 -10 -6 -10 -14z"/>
<path d="M1291 3694 c-25 -19 -53 -48 -63 -64 -10 -17 -22 -30 -28 -30 -5 0
-10 -7 -10 -15 0 -8 -6 -15 -14 -15 -15 0 -62 -67 -53 -77 11 -10 48 25 117
108 91 110 107 130 98 128 -2 0 -23 -16 -47 -35z"/>
<path d="M2611 3626 c-8 -10 -9 -16 -1 -21 5 -3 10 -5 11 -3 4 18 7 38 4 38
-1 0 -8 -6 -14 -14z"/>
<path d="M1200 3619 c0 -5 5 -7 10 -4 6 3 10 8 10 11 0 2 -4 4 -10 4 -5 0 -10
-5 -10 -11z"/>
<path d="M2616 3581 c-4 -5 -2 -12 3 -15 5 -4 12 -2 15 3 4 5 2 12 -3 15 -5 4
-12 2 -15 -3z"/>
<path d="M2709 3538 c-5 -18 -6 -38 -1 -34 7 8 12 36 6 36 -2 0 -4 -1 -5 -2z"/>
<path d="M1110 3451 c0 -6 4 -13 10 -16 6 -3 7 1 4 9 -7 18 -14 21 -14 7z"/>
<path d="M2943 3335 c0 -8 4 -12 9 -9 5 3 6 10 3 15 -9 13 -12 11 -12 -6z"/>
<path d="M3118 3343 c-6 -29 -3 -242 3 -219 8 27 9 226 2 226 -1 0 -4 -3 -5
-7z"/>
<path d="M2225 3300 c-3 -5 -1 -10 4 -10 6 0 11 5 11 10 0 6 -2 10 -4 10 -3 0
-8 -4 -11 -10z"/>
<path d="M2345 3290 c-3 -5 -1 -10 4 -10 6 0 11 5 11 10 0 6 -2 10 -4 10 -3 0
-8 -4 -11 -10z"/>
<path d="M2375 3290 c-3 -6 1 -7 9 -4 18 7 21 14 7 14 -6 0 -13 -4 -16 -10z"/>
<path d="M2420 3275 c-14 -8 -20 -14 -14 -15 5 0 19 7 30 15 24 18 16 19 -16
0z"/>
<path d="M1690 2980 c0 -5 5 -10 11 -10 5 0 7 5 4 10 -3 6 -8 10 -11 10 -2 0
-4 -4 -4 -10z"/>
<path d="M1625 2930 c3 -5 10 -10 16 -10 5 0 9 5 9 10 0 6 -7 10 -16 10 -8 0
-12 -4 -9 -10z"/>
<path d="M1673 2922 c-11 -8 -12 -52 -1 -52 4 0 8 5 8 10 0 6 8 10 18 9 10 0
12 -3 5 -6 -21 -8 -15 -23 10 -23 12 0 28 9 35 20 11 18 10 20 -13 20 -14 0
-25 4 -25 9 0 12 -25 21 -37 13z"/>
<path d="M2704 2795 c-4 -11 -13 -13 -27 -9 -20 6 -20 6 -4 -11 10 -10 15 -20
12 -23 -3 -3 -11 0 -17 6 -7 7 -17 12 -22 12 -6 0 -4 -5 4 -10 13 -8 12 -10
-2 -10 -10 0 -18 5 -18 10 0 6 -4 10 -10 10 -5 0 -10 -7 -10 -16 0 -10 -6 -14
-17 -10 -52 15 -71 17 -78 6 -4 -6 -16 -8 -28 -4 -19 6 -20 5 -9 -8 10 -13 9
-15 -12 -11 -13 3 -27 0 -30 -6 -4 -6 -22 -11 -40 -11 -20 0 -40 -8 -51 -20
-19 -21 -8 -29 12 -9 6 6 17 8 24 3 9 -5 2 -11 -22 -19 -22 -8 -34 -19 -35
-31 -2 -37 -4 -44 -13 -44 -4 0 -6 11 -3 25 2 14 0 25 -6 25 -11 0 -23 -60
-14 -75 11 -18 12 -44 2 -50 -6 -3 -10 -44 -10 -89 0 -69 4 -88 20 -107 23
-29 25 -23 6 22 -12 29 -13 56 -7 137 1 7 4 11 9 8 11 -7 45 21 38 33 -4 5 3
15 14 21 12 6 20 7 20 1 0 -5 -6 -12 -12 -14 -7 -3 -1 -6 13 -6 15 -1 40 11
58 27 72 62 230 78 321 32 21 -11 50 -19 62 -19 19 1 20 2 4 6 -14 4 -16 7 -6
13 15 9 -37 40 -69 40 -11 0 -23 5 -26 11 -5 6 10 9 44 8 52 -3 72 -9 74 -25
1 -5 7 -8 13 -6 7 1 20 -8 29 -20 12 -16 16 -17 11 -5 -5 15 -3 16 14 7 11 -6
20 -15 20 -21 0 -6 5 -7 10 -4 6 4 8 11 5 16 -4 5 -2 9 4 9 6 0 8 -13 4 -32
-7 -40 11 -27 21 13 4 19 0 34 -15 53 -11 14 -16 26 -10 26 6 0 1 18 -10 40
-22 41 -64 69 -114 74 -16 2 -36 13 -46 25 -20 24 -67 28 -75 6z m33 -101 c-3
-3 -12 -4 -19 -1 -8 3 -5 6 6 6 11 1 17 -2 13 -5z m-387 -54 c0 -5 -5 -10 -11
-10 -5 0 -7 5 -4 10 3 6 8 10 11 10 2 0 4 -4 4 -10z m571 -7 c13 -16 12 -17
-3 -5 -11 9 -28 11 -47 7 -17 -3 -32 -2 -36 4 -11 20 71 13 86 -6z m-16 -21
c-3 -3 -11 0 -18 7 -9 10 -8 11 6 5 10 -3 15 -9 12 -12z"/>
<path d="M2900 2779 c0 -5 5 -7 10 -4 6 3 10 8 10 11 0 2 -4 4 -10 4 -5 0 -10
-5 -10 -11z"/>
<path d="M2098 2631 c-5 -18 -1 -31 16 -47 l23 -23 -3 22 c-1 12 -3 29 -3 37
-1 13 -3 13 -10 1 -7 -11 -10 -9 -13 10 l-3 24 -7 -24z"/>
<path d="M2244 2607 c1 -27 4 -33 14 -25 15 13 15 20 -1 42 -12 17 -14 15 -13
-17z"/>
<path d="M2150 2601 c0 -5 7 -11 15 -15 8 -3 15 -1 15 3 0 5 -7 11 -15 15 -8
3 -15 1 -15 -3z"/>
<path d="M2520 2569 c-25 -11 -50 -28 -55 -38 -31 -56 -87 -131 -96 -126 -5 4
-7 11 -4 16 4 5 2 9 -4 9 -15 0 -23 -18 -11 -25 6 -4 7 -11 4 -17 -9 -14 8 -4
61 35 l40 29 -38 -36 c-21 -20 -35 -41 -32 -46 3 -6 -1 -7 -9 -4 -21 8 -21
-19 -1 -36 8 -7 15 -9 15 -4 0 5 7 0 15 -10 8 -11 18 -17 21 -13 4 4 1 13 -5
21 -7 8 -10 19 -7 24 6 10 106 13 121 4 6 -4 16 -7 24 -7 8 0 16 -6 19 -14 3
-10 -2 -11 -19 -5 -13 4 -31 7 -39 7 -8 0 -20 4 -27 9 -7 5 -14 5 -18 -2 -11
-18 85 -53 161 -58 39 -2 74 0 77 5 3 5 -11 10 -31 11 -70 4 -91 12 -84 30 8
23 22 35 55 50 15 6 37 28 48 47 24 39 38 43 63 17 15 -18 15 -20 -1 -34 -28
-24 -59 -38 -87 -38 -30 0 -43 -17 -26 -33 10 -9 11 -9 6 0 -5 9 2 11 23 8 17
-2 35 -6 41 -10 5 -3 10 -1 10 4 0 6 8 11 19 11 10 0 24 7 31 16 7 8 23 14 34
13 29 -3 106 32 86 39 -30 10 -70 44 -64 53 3 6 0 17 -8 26 -11 15 -11 16 6
10 33 -13 2 16 -46 43 l-43 23 20 -23 20 -23 -32 16 c-37 20 -87 26 -90 12 -2
-5 3 -10 10 -11 33 -2 87 -17 87 -24 0 -4 -33 -8 -74 -9 -72 -1 -74 -1 -84 26
-6 16 -11 21 -11 11 -1 -20 -17 -32 -31 -23 -8 5 -7 12 2 23 11 13 10 15 -10
10 -34 -9 -15 10 21 21 18 5 24 9 12 9 -11 0 -40 -8 -65 -19z m300 -74 c16
-20 8 -29 -19 -20 -12 4 -18 12 -14 21 7 18 17 18 33 -1z m-180 -35 c0 -5 -4
-10 -10 -10 -5 0 -10 5 -10 10 0 6 5 10 10 10 6 0 10 -4 10 -10z m-90 -20 c0
-12 12 -33 26 -47 20 -20 23 -28 13 -37 -8 -8 -10 -8 -6 0 7 12 -71 27 -130
26 -30 -1 -49 17 -20 19 6 0 32 13 57 29 55 35 60 35 60 10z"/>
<path d="M2850 2576 c0 -2 7 -7 16 -10 8 -3 12 -2 9 4 -6 10 -25 14 -25 6z"/>
<path d="M2885 2540 c-3 -5 -1 -10 4 -10 6 0 11 5 11 10 0 6 -2 10 -4 10 -3 0
-8 -4 -11 -10z"/>
<path d="M2383 2500 c-26 -11 -31 -27 -8 -27 8 0 13 3 10 5 -3 3 3 11 13 18
20 15 16 16 -15 4z"/>
<path d="M3388 2379 c-22 -12 -23 -29 -4 -29 8 0 22 -10 30 -22 14 -19 16 -20
22 -4 7 18 -10 66 -23 66 -5 0 -16 -5 -25 -11z"/>
<path d="M2310 2371 c0 -6 5 -13 10 -16 6 -4 8 -10 6 -14 -7 -11 12 -36 21
-28 4 5 1 12 -6 16 -11 7 -11 9 0 13 11 4 10 8 -3 21 -19 19 -28 22 -28 8z"/>
<path d="M2340 2290 c0 -5 5 -10 10 -10 6 0 10 5 10 10 0 6 -4 10 -10 10 -5 0
-10 -4 -10 -10z"/>
<path d="M2420 2019 c0 -6 7 -9 15 -5 8 3 15 1 15 -3 0 -5 7 -11 15 -15 12 -4
13 -2 2 14 -13 21 -47 27 -47 9z"/>
<path d="M3297 1919 c-9 -6 -15 -14 -12 -20 9 -14 19 -11 33 11 13 22 7 25
-21 9z"/>
<path d="M3233 1889 c14 -8 22 -8 30 0 8 8 3 11 -18 11 -26 -1 -28 -2 -12 -11z"/>
<path d="M2373 1845 l-28 -26 33 3 c20 2 36 -3 42 -11 7 -12 13 -12 36 4 21
13 25 20 14 23 -8 3 -21 11 -28 19 -20 19 -37 16 -69 -12z"/>
<path d="M2408 1764 c5 -29 22 -43 22 -18 0 10 3 15 6 11 12 -11 -7 -46 -22
-40 -10 4 -12 0 -7 -13 4 -11 3 -15 -4 -11 -9 6 -22 -21 -23 -44 0 -13 45 -4
57 11 11 13 12 12 13 -4 0 -19 0 -19 21 0 21 19 22 19 15 -2 -6 -18 -3 -20 24
-16 31 4 42 22 15 22 -11 0 -14 7 -10 23 4 15 0 29 -14 41 -19 18 -20 17 -16
-13 2 -17 0 -31 -4 -31 -9 0 -24 38 -22 57 1 6 -11 21 -27 32 l-29 20 5 -25z
m42 -74 c0 -5 -4 -10 -10 -10 -5 0 -10 5 -10 10 0 6 5 10 10 10 6 0 10 -4 10
-10z m-43 -32 c-3 -8 -6 -5 -6 6 -1 11 2 17 5 13 3 -3 4 -12 1 -19z"/>
<path d="M2530 1704 c0 -8 5 -12 10 -9 6 4 8 11 5 16 -9 14 -15 11 -15 -7z"/>
<path d="M2540 1685 c-8 -10 -9 -15 -1 -15 6 0 11 -6 11 -14 0 -8 7 -17 16
-20 13 -5 15 -1 9 21 -9 38 -20 47 -35 28z"/>
<path d="M2930 1605 c-7 -9 -11 -17 -9 -20 3 -2 10 5 17 15 14 24 10 26 -8 5z"/>
<path d="M2965 1600 c3 -5 8 -10 11 -10 2 0 4 5 4 10 0 6 -5 10 -11 10 -5 0
-7 -4 -4 -10z"/>
<path d="M2890 1539 c0 -5 5 -7 10 -4 6 3 10 8 10 11 0 2 -4 4 -10 4 -5 0 -10
-5 -10 -11z"/>
<path d="M2906 1521 c-3 -5 5 -8 18 -7 13 0 22 4 19 9 -6 10 -31 9 -37 -2z"/>
<path d="M2948 1485 c-20 -27 -22 -35 -9 -35 5 0 11 9 14 21 3 12 10 18 16 14
6 -3 11 -2 11 4 0 20 -16 18 -32 -4z"/>
<path d="M2880 1485 c-11 -13 -10 -14 4 -9 9 3 16 10 16 15 0 13 -6 11 -20 -6z"/>
<path d="M2880 1453 c0 -4 5 -15 10 -23 8 -13 10 -13 10 2 0 9 -4 20 -10 23
-5 3 -10 3 -10 -2z"/>
<path d="M2985 1400 c-3 -5 -1 -10 4 -10 6 0 11 5 11 10 0 6 -2 10 -4 10 -3 0
-8 -4 -11 -10z"/>
<path d="M2983 1345 c-6 -14 -10 -25 -8 -25 8 0 35 32 35 41 0 18 -15 9 -27
-16z"/>
<path d="M2435 1300 c-3 -5 -1 -10 4 -10 6 0 11 5 11 10 0 6 -2 10 -4 10 -3 0
-8 -4 -11 -10z"/>
<path d="M2947 1259 c-10 -26 -20 -38 -28 -33 -7 4 -10 2 -7 -6 8 -25 26 -21
37 7 6 15 15 38 21 51 5 12 6 22 1 22 -4 0 -15 -18 -24 -41z"/>
<path d="M2830 1270 c0 -5 5 -10 11 -10 5 0 7 5 4 10 -3 6 -8 10 -11 10 -2 0
-4 -4 -4 -10z"/>
<path d="M2925 1179 c-4 -6 -5 -12 -2 -15 2 -3 7 2 10 11 7 17 1 20 -8 4z"/>
<path d="M2140 1044 c0 -8 5 -12 10 -9 6 3 10 10 10 16 0 5 -4 9 -10 9 -5 0
-10 -7 -10 -16z"/>
<path d="M2933 1043 c-15 -5 -17 -23 -4 -23 5 0 11 7 15 15 3 8 4 15 3 14 -1
0 -8 -3 -14 -6z"/>
<path d="M2520 1001 c0 -6 4 -13 10 -16 6 -3 7 1 4 9 -7 18 -14 21 -14 7z"/>
<path d="M3012 933 c-1 -85 -11 -133 -28 -133 -13 0 -21 -30 -26 -107 -3 -32
0 -43 11 -43 11 0 11 -3 -2 -18 -17 -19 -18 -106 -2 -132 5 -9 4 -11 -3 -6
-17 10 -15 -6 3 -30 8 -10 15 -27 15 -36 0 -10 7 -18 15 -18 12 0 14 7 9 28
-7 24 -6 26 10 13 19 -16 34 -8 19 11 -9 11 -10 42 -3 68 0 3 7 -8 15 -25 l13
-30 1 30 c1 27 3 28 12 11 7 -10 9 -37 6 -60 -8 -54 -84 -202 -135 -263 -36
-42 -138 -134 -197 -177 -18 -13 100 -15 975 -13 l995 2 1 95 c1 52 -1 122 -4
155 l-5 60 -75 55 c-41 30 -93 71 -115 91 -67 61 -336 139 -483 139 -17 0 -74
16 -125 35 -52 19 -110 38 -129 42 -37 7 -71 23 -245 123 -141 80 -150 84
-275 110 -71 14 -119 30 -150 50 -25 16 -57 32 -72 35 l-26 7 0 -69z m42 -115
c22 -34 33 -97 27 -152 l-6 -49 -22 44 c-23 45 -39 179 -22 179 4 0 15 -10 23
-22z m-77 -90 c-3 -8 -6 -5 -6 6 -1 11 2 17 5 13 3 -3 4 -12 1 -19z"/>
<path d="M2924 939 c-19 -22 -19 -22 3 -10 24 12 39 31 25 31 -5 0 -17 -10
-28 -21z"/>
<path d="M2930 905 c-7 -8 -8 -15 -2 -15 5 0 15 7 22 15 7 8 8 15 2 15 -5 0
-15 -7 -22 -15z"/>
<path d="M2766 854 c-11 -7 -17 -16 -15 -19 3 -3 14 2 25 9 10 8 17 17 14 19
-3 3 -14 -1 -24 -9z"/>
<path d="M2655 720 c-3 -5 -2 -10 4 -10 5 0 13 5 16 10 3 6 2 10 -4 10 -5 0
-13 -4 -16 -10z"/>
<path d="M2618 713 c7 -3 16 -2 19 1 4 3 -2 6 -13 5 -11 0 -14 -3 -6 -6z"/>
<path d="M2985 390 c-3 -5 -1 -10 4 -10 6 0 11 5 11 10 0 6 -2 10 -4 10 -3 0
-8 -4 -11 -10z"/>
<path d="M1906 132 c-3 -6 -1 -14 5 -17 14 -9 20 -2 10 14 -6 8 -11 9 -15 3z"/>
</g>
</svg>
